<svg width="46" height="22" viewBox="0 0 46 22" fill="none" xmlns="http://www.w3.org/2000/svg">
<path d="M11.5045 0C13.024 0 14.4048 0.212219 15.6469 0.636658C16.901 1.06109 18.0225 1.60343 19.0114 2.26367C20.0003 2.91211 20.8685 3.57824 21.6162 4.26206C21.8936 4.52144 22.1347 4.75724 22.3398 4.96945C22.5568 5.18167 22.7739 5.41158 22.991 5.65916C23.196 5.41158 23.401 5.18167 23.606 4.96945C23.823 4.74545 24.0642 4.50965 24.3295 4.26206C25.4752 3.21276 26.8981 2.24009 28.5985 1.34405C30.3109 0.448018 32.2705 0 34.4774 0C36.5998 0 38.5293 0.501072 40.2658 1.50322C42.0144 2.49357 43.4073 3.82583 44.4444 5.5C45.4815 7.16238 46 8.99571 46 11C46 12.5209 45.6985 13.9475 45.0956 15.2797C44.5047 16.6002 43.6786 17.7674 42.6174 18.7814C41.5682 19.7835 40.3442 20.5734 38.9453 21.1511C37.5585 21.717 36.0692 22 34.4774 22C32.982 22 31.6133 21.7937 30.3712 21.381C29.1291 20.9684 28.0136 20.4496 27.0248 19.8248C26.0359 19.1881 25.1676 18.5397 24.42 17.8794C24.0944 17.5847 23.823 17.3312 23.606 17.119C23.401 16.895 23.196 16.6592 22.991 16.4116C22.7498 16.6827 22.5206 16.9244 22.3036 17.1367C22.0986 17.3489 21.8574 17.5965 21.58 17.8794C20.8565 18.5161 20.0003 19.1527 19.0114 19.7894C18.0225 20.4143 16.901 20.9389 15.6469 21.3633C14.4048 21.7878 13.024 22 11.5045 22C9.38209 22 7.45261 21.5048 5.71608 20.5145C3.97955 19.5241 2.59274 18.1978 1.55564 16.5354C0.518548 14.873 0 13.0279 0 11C0 9.49089 0.295451 8.0761 0.886355 6.75563C1.48932 5.42337 2.31538 4.25027 3.36453 3.23634C4.42574 2.2224 5.64976 1.43248 7.03657 0.866559C8.43544 0.288853 9.92476 0 11.5045 0ZM6.76524 11C6.76524 11.8253 6.97627 12.574 7.39835 13.246C7.83248 13.9062 8.4053 14.4368 9.11679 14.8376C9.84035 15.2267 10.6363 15.4212 11.5045 15.4212C12.5416 15.4212 13.4943 15.209 14.3626 14.7846C15.2429 14.3601 16.087 13.7942 16.895 13.0868C17.3533 12.6742 17.7331 12.291 18.0346 11.9373C18.3361 11.5836 18.5833 11.2712 18.7762 11C18.5592 10.7288 18.2517 10.3869 17.8537 9.97428C17.4678 9.54984 17.1483 9.21972 16.895 8.98392C16.1714 8.3119 15.3514 7.74598 14.4349 7.28617C13.5184 6.81458 12.5416 6.57878 11.5045 6.57878C10.6363 6.57878 9.84035 6.7851 9.11679 7.19775C8.4053 7.59861 7.83248 8.13505 7.39835 8.80708C6.97627 9.46731 6.76524 10.1983 6.76524 11ZM39.1805 11C39.1805 10.1983 38.9695 9.46731 38.5474 8.80708C38.1374 8.13505 37.5766 7.59861 36.8651 7.19775C36.1536 6.7851 35.3577 6.57878 34.4774 6.57878C33.778 6.57878 33.1026 6.69078 32.4514 6.91479C31.8002 7.12701 31.1912 7.42176 30.6245 7.79904C30.0697 8.16452 29.5632 8.55949 29.105 8.98392C28.7794 9.29046 28.4297 9.65005 28.0558 10.0627C27.682 10.4753 27.4046 10.7878 27.2237 11C27.4529 11.3301 27.7182 11.6661 28.0197 12.008C28.3211 12.3382 28.6829 12.6978 29.105 13.0868C29.8647 13.7706 30.6848 14.3307 31.5651 14.7669C32.4575 15.2031 33.4282 15.4212 34.4774 15.4212C35.3577 15.4212 36.1536 15.2267 36.8651 14.8376C37.5766 14.4368 38.1374 13.9062 38.5474 13.246C38.9695 12.574 39.1805 11.8253 39.1805 11Z" fill="#3DADFF"/>
</svg>
