<svg width="390" height="248" viewBox="0 0 390 248" fill="none" xmlns="http://www.w3.org/2000/svg">
<g opacity="0.3">
<rect x="400" y="248" width="12" height="12" transform="rotate(180 400 248)" fill="#3DADFF"/>
<rect x="384" y="248" width="12" height="12" transform="rotate(180 384 248)" fill="#3DADFF"/>
<rect x="368" y="248" width="12" height="12" transform="rotate(180 368 248)" fill="#3DADFF"/>
<rect x="352" y="248" width="12" height="12" transform="rotate(180 352 248)" fill="#3DADFF"/>
<rect x="336" y="248" width="12" height="12" transform="rotate(180 336 248)" fill="#3DADFF"/>
<rect x="320" y="248" width="12" height="12" transform="rotate(180 320 248)" fill="white" fill-opacity="0.1"/>
<rect x="304" y="248" width="12" height="12" transform="rotate(180 304 248)" fill="#3DADFF"/>
<rect x="288" y="248" width="12" height="12" transform="rotate(180 288 248)" fill="#3DADFF"/>
<rect x="272" y="248" width="12" height="12" transform="rotate(180 272 248)" fill="#3DADFF"/>
<rect x="256" y="248" width="12" height="12" transform="rotate(180 256 248)" fill="#3DADFF"/>
<rect x="240" y="248" width="12" height="12" transform="rotate(180 240 248)" fill="#3DADFF"/>
<rect x="224" y="248" width="12" height="12" transform="rotate(180 224 248)" fill="#3DADFF"/>
<rect x="208" y="248" width="12" height="12" transform="rotate(180 208 248)" fill="#3DADFF"/>
<rect x="192" y="248" width="12" height="12" transform="rotate(180 192 248)" fill="#3DADFF"/>
<rect x="176" y="248" width="12" height="12" transform="rotate(180 176 248)" fill="#3DADFF" fill-opacity="0.25"/>
<rect x="160" y="248" width="12" height="12" transform="rotate(180 160 248)" fill="#3DADFF"/>
<rect x="144" y="248" width="12" height="12" transform="rotate(180 144 248)" fill="#3DADFF"/>
<rect x="128" y="248" width="12" height="12" transform="rotate(180 128 248)" fill="#3DADFF"/>
<rect x="112" y="248" width="12" height="12" transform="rotate(180 112 248)" fill="#3DADFF"/>
<rect x="96" y="248" width="12" height="12" transform="rotate(180 96 248)" fill="#3DADFF"/>
<rect x="80" y="248" width="12" height="12" transform="rotate(180 80 248)" fill="#3DADFF" fill-opacity="0.25"/>
<rect x="64" y="248" width="12" height="12" transform="rotate(180 64 248)" fill="#3DADFF"/>
<rect x="48" y="248" width="12" height="12" transform="rotate(180 48 248)" fill="#3DADFF"/>
<rect x="32" y="248" width="12" height="12" transform="rotate(180 32 248)" fill="#3DADFF"/>
<rect x="16" y="248" width="12" height="12" transform="rotate(180 16 248)" fill="#3DADFF"/>
</g>
<g opacity="0.3">
<rect x="400" y="124" width="12" height="12" transform="rotate(180 400 124)" fill="#3DADFF"/>
<rect x="384" y="124" width="12" height="12" transform="rotate(180 384 124)" fill="#3DADFF"/>
<rect x="368" y="124" width="12" height="12" transform="rotate(180 368 124)" fill="#3DADFF"/>
<rect x="352" y="124" width="12" height="12" transform="rotate(180 352 124)" fill="#3DADFF"/>
<rect x="336" y="124" width="12" height="12" transform="rotate(180 336 124)" fill="#3DADFF"/>
<rect x="320" y="124" width="12" height="12" transform="rotate(180 320 124)" fill="white" fill-opacity="0.1"/>
<rect x="304" y="124" width="12" height="12" transform="rotate(180 304 124)" fill="#3DADFF"/>
<rect x="288" y="124" width="12" height="12" transform="rotate(180 288 124)" fill="#3DADFF"/>
<rect x="272" y="124" width="12" height="12" transform="rotate(180 272 124)" fill="#3DADFF"/>
<rect x="256" y="124" width="12" height="12" transform="rotate(180 256 124)" fill="#3DADFF"/>
<rect x="240" y="124" width="12" height="12" transform="rotate(180 240 124)" fill="#3DADFF"/>
<rect x="224" y="124" width="12" height="12" transform="rotate(180 224 124)" fill="#3DADFF"/>
<rect x="208" y="124" width="12" height="12" transform="rotate(180 208 124)" fill="#3DADFF"/>
<rect x="192" y="124" width="12" height="12" transform="rotate(180 192 124)" fill="#3DADFF"/>
<rect x="176" y="124" width="12" height="12" transform="rotate(180 176 124)" fill="#3DADFF" fill-opacity="0.25"/>
<rect x="160" y="124" width="12" height="12" transform="rotate(180 160 124)" fill="#3DADFF"/>
<rect x="144" y="124" width="12" height="12" transform="rotate(180 144 124)" fill="#3DADFF"/>
<rect x="128" y="124" width="12" height="12" transform="rotate(180 128 124)" fill="#3DADFF"/>
<rect x="112" y="124" width="12" height="12" transform="rotate(180 112 124)" fill="#3DADFF"/>
<rect x="96" y="124" width="12" height="12" transform="rotate(180 96 124)" fill="#3DADFF"/>
<rect x="80" y="124" width="12" height="12" transform="rotate(180 80 124)" fill="#3DADFF" fill-opacity="0.25"/>
<rect x="64" y="124" width="12" height="12" transform="rotate(180 64 124)" fill="#3DADFF"/>
<rect x="48" y="124" width="12" height="12" transform="rotate(180 48 124)" fill="#3DADFF"/>
<rect x="32" y="124" width="12" height="12" transform="rotate(180 32 124)" fill="#3DADFF"/>
<rect x="16" y="124" width="12" height="12" transform="rotate(180 16 124)" fill="#3DADFF"/>
</g>
<g opacity="0.3">
<rect x="400" y="184" width="12" height="12" transform="rotate(180 400 184)" fill="white" fill-opacity="0.1"/>
<rect x="384" y="184" width="12" height="12" transform="rotate(180 384 184)" fill="#3DADFF"/>
<rect x="368" y="184" width="12" height="12" transform="rotate(180 368 184)" fill="white" fill-opacity="0.1"/>
<rect x="352" y="184" width="12" height="12" transform="rotate(180 352 184)" fill="#3DADFF"/>
<rect x="336" y="184" width="12" height="12" transform="rotate(180 336 184)" fill="white" fill-opacity="0.1"/>
<rect x="320" y="184" width="12" height="12" transform="rotate(180 320 184)" fill="#3DADFF"/>
<rect x="304" y="184" width="12" height="12" transform="rotate(180 304 184)" fill="white" fill-opacity="0.1"/>
<rect x="288" y="184" width="12" height="12" transform="rotate(180 288 184)" fill="#3DADFF"/>
<rect x="272" y="184" width="12" height="12" transform="rotate(180 272 184)" fill="#3DADFF"/>
<rect x="256" y="184" width="12" height="12" transform="rotate(180 256 184)" fill="#3DADFF"/>
<rect x="240" y="184" width="12" height="12" transform="rotate(180 240 184)" fill="#3DADFF" fill-opacity="0.25"/>
<rect x="224" y="184" width="12" height="12" transform="rotate(180 224 184)" fill="#3DADFF"/>
<rect x="208" y="184" width="12" height="12" transform="rotate(180 208 184)" fill="#3DADFF"/>
<rect x="192" y="184" width="12" height="12" transform="rotate(180 192 184)" fill="#3DADFF"/>
<rect x="176" y="184" width="12" height="12" transform="rotate(180 176 184)" fill="#3DADFF" fill-opacity="0.25"/>
<rect x="160" y="184" width="12" height="12" transform="rotate(180 160 184)" fill="#3DADFF"/>
<rect x="144" y="184" width="12" height="12" transform="rotate(180 144 184)" fill="#3DADFF"/>
<rect x="128" y="184" width="12" height="12" transform="rotate(180 128 184)" fill="#3DADFF"/>
<rect x="112" y="184" width="12" height="12" transform="rotate(180 112 184)" fill="#3DADFF" fill-opacity="0.25"/>
<rect x="96" y="184" width="12" height="12" transform="rotate(180 96 184)" fill="#3DADFF"/>
<rect x="80" y="184" width="12" height="12" transform="rotate(180 80 184)" fill="#3DADFF" fill-opacity="0.25"/>
<rect x="64" y="184" width="12" height="12" transform="rotate(180 64 184)" fill="#3DADFF"/>
<rect x="48" y="184" width="12" height="12" transform="rotate(180 48 184)" fill="#3DADFF"/>
<rect x="32" y="184" width="12" height="12" transform="rotate(180 32 184)" fill="#3DADFF"/>
<rect x="16" y="184" width="12" height="12" transform="rotate(180 16 184)" fill="#3DADFF"/>
</g>
<g opacity="0.3">
<rect x="400" y="60" width="12" height="12" transform="rotate(180 400 60)" fill="white" fill-opacity="0.1"/>
<rect x="384" y="60" width="12" height="12" transform="rotate(180 384 60)" fill="#3DADFF"/>
<rect x="368" y="60" width="12" height="12" transform="rotate(180 368 60)" fill="white" fill-opacity="0.1"/>
<rect x="352" y="60" width="12" height="12" transform="rotate(180 352 60)" fill="#3DADFF"/>
<rect x="336" y="60" width="12" height="12" transform="rotate(180 336 60)" fill="white" fill-opacity="0.1"/>
<rect x="320" y="60" width="12" height="12" transform="rotate(180 320 60)" fill="#3DADFF"/>
<rect x="304" y="60" width="12" height="12" transform="rotate(180 304 60)" fill="white" fill-opacity="0.1"/>
<rect x="288" y="60" width="12" height="12" transform="rotate(180 288 60)" fill="#3DADFF"/>
<rect x="272" y="60" width="12" height="12" transform="rotate(180 272 60)" fill="#3DADFF"/>
<rect x="256" y="60" width="12" height="12" transform="rotate(180 256 60)" fill="#3DADFF"/>
<rect x="240" y="60" width="12" height="12" transform="rotate(180 240 60)" fill="#3DADFF" fill-opacity="0.25"/>
<rect x="224" y="60" width="12" height="12" transform="rotate(180 224 60)" fill="#3DADFF"/>
<rect x="208" y="60" width="12" height="12" transform="rotate(180 208 60)" fill="#3DADFF"/>
<rect x="192" y="60" width="12" height="12" transform="rotate(180 192 60)" fill="#3DADFF"/>
<rect x="176" y="60" width="12" height="12" transform="rotate(180 176 60)" fill="#3DADFF" fill-opacity="0.25"/>
<rect x="160" y="60" width="12" height="12" transform="rotate(180 160 60)" fill="#3DADFF"/>
<rect x="144" y="60" width="12" height="12" transform="rotate(180 144 60)" fill="#3DADFF"/>
<rect x="128" y="60" width="12" height="12" transform="rotate(180 128 60)" fill="#3DADFF"/>
<rect x="112" y="60" width="12" height="12" transform="rotate(180 112 60)" fill="#3DADFF" fill-opacity="0.25"/>
<rect x="96" y="60" width="12" height="12" transform="rotate(180 96 60)" fill="#3DADFF"/>
<rect x="80" y="60" width="12" height="12" transform="rotate(180 80 60)" fill="#3DADFF" fill-opacity="0.25"/>
<rect x="64" y="60" width="12" height="12" transform="rotate(180 64 60)" fill="#3DADFF"/>
<rect x="48" y="60" width="12" height="12" transform="rotate(180 48 60)" fill="#3DADFF"/>
<rect x="32" y="60" width="12" height="12" transform="rotate(180 32 60)" fill="#3DADFF"/>
<rect x="16" y="60" width="12" height="12" transform="rotate(180 16 60)" fill="#3DADFF"/>
</g>
<g opacity="0.3">
<rect x="400" y="216" width="12" height="12" transform="rotate(180 400 216)" fill="white" fill-opacity="0.1"/>
<rect x="384" y="216" width="12" height="12" transform="rotate(180 384 216)" fill="#3DADFF"/>
<rect x="368" y="216" width="12" height="12" transform="rotate(180 368 216)" fill="#3DADFF"/>
<rect x="352" y="216" width="12" height="12" transform="rotate(180 352 216)" fill="#3DADFF"/>
<rect x="336" y="216" width="12" height="12" transform="rotate(180 336 216)" fill="#3DADFF"/>
<rect x="320" y="216" width="12" height="12" transform="rotate(180 320 216)" fill="#3DADFF"/>
<rect x="304" y="216" width="12" height="12" transform="rotate(180 304 216)" fill="#3DADFF"/>
<rect x="288" y="216" width="12" height="12" transform="rotate(180 288 216)" fill="#3DADFF"/>
<rect x="272" y="216" width="12" height="12" transform="rotate(180 272 216)" fill="white" fill-opacity="0.1"/>
<rect x="256" y="216" width="12" height="12" transform="rotate(180 256 216)" fill="#3DADFF"/>
<rect x="240" y="216" width="12" height="12" transform="rotate(180 240 216)" fill="#3DADFF"/>
<rect x="224" y="216" width="12" height="12" transform="rotate(180 224 216)" fill="#3DADFF"/>
<rect x="208" y="216" width="12" height="12" transform="rotate(180 208 216)" fill="#3DADFF" fill-opacity="0.25"/>
<rect x="192" y="216" width="12" height="12" transform="rotate(180 192 216)" fill="#3DADFF"/>
<rect x="176" y="216" width="12" height="12" transform="rotate(180 176 216)" fill="#3DADFF"/>
<rect x="160" y="216" width="12" height="12" transform="rotate(180 160 216)" fill="#3DADFF"/>
<rect x="144" y="216" width="12" height="12" transform="rotate(180 144 216)" fill="#3DADFF" fill-opacity="0.25"/>
<rect x="128" y="216" width="12" height="12" transform="rotate(180 128 216)" fill="#3DADFF"/>
<rect x="112" y="216" width="12" height="12" transform="rotate(180 112 216)" fill="#3DADFF" fill-opacity="0.25"/>
<rect x="96" y="216" width="12" height="12" transform="rotate(180 96 216)" fill="#3DADFF"/>
<rect x="80" y="216" width="12" height="12" transform="rotate(180 80 216)" fill="#3DADFF"/>
<rect x="64" y="216" width="12" height="12" transform="rotate(180 64 216)" fill="#3DADFF" fill-opacity="0.25"/>
<rect x="48" y="216" width="12" height="12" transform="rotate(180 48 216)" fill="#3DADFF"/>
<rect x="32" y="216" width="12" height="12" transform="rotate(180 32 216)" fill="#3DADFF"/>
<rect x="16" y="216" width="12" height="12" transform="rotate(180 16 216)" fill="#3DADFF" fill-opacity="0.25"/>
</g>
<g opacity="0.3">
<rect x="400" y="92" width="12" height="12" transform="rotate(180 400 92)" fill="white" fill-opacity="0.1"/>
<rect x="384" y="92" width="12" height="12" transform="rotate(180 384 92)" fill="#3DADFF"/>
<rect x="368" y="92" width="12" height="12" transform="rotate(180 368 92)" fill="#3DADFF"/>
<rect x="352" y="92" width="12" height="12" transform="rotate(180 352 92)" fill="#3DADFF"/>
<rect x="336" y="92" width="12" height="12" transform="rotate(180 336 92)" fill="#3DADFF"/>
<rect x="320" y="92" width="12" height="12" transform="rotate(180 320 92)" fill="#3DADFF"/>
<rect x="304" y="92" width="12" height="12" transform="rotate(180 304 92)" fill="#3DADFF"/>
<rect x="288" y="92" width="12" height="12" transform="rotate(180 288 92)" fill="#3DADFF"/>
<rect x="272" y="92" width="12" height="12" transform="rotate(180 272 92)" fill="white" fill-opacity="0.1"/>
<rect x="256" y="92" width="12" height="12" transform="rotate(180 256 92)" fill="#3DADFF"/>
<rect x="240" y="92" width="12" height="12" transform="rotate(180 240 92)" fill="#3DADFF"/>
<rect x="224" y="92" width="12" height="12" transform="rotate(180 224 92)" fill="#3DADFF"/>
<rect x="208" y="92" width="12" height="12" transform="rotate(180 208 92)" fill="#3DADFF" fill-opacity="0.25"/>
<rect x="192" y="92" width="12" height="12" transform="rotate(180 192 92)" fill="#3DADFF"/>
<rect x="176" y="92" width="12" height="12" transform="rotate(180 176 92)" fill="#3DADFF"/>
<rect x="160" y="92" width="12" height="12" transform="rotate(180 160 92)" fill="#3DADFF"/>
<rect x="144" y="92" width="12" height="12" transform="rotate(180 144 92)" fill="#3DADFF" fill-opacity="0.25"/>
<rect x="128" y="92" width="12" height="12" transform="rotate(180 128 92)" fill="#3DADFF"/>
<rect x="112" y="92" width="12" height="12" transform="rotate(180 112 92)" fill="#3DADFF" fill-opacity="0.25"/>
<rect x="96" y="92" width="12" height="12" transform="rotate(180 96 92)" fill="#3DADFF"/>
<rect x="80" y="92" width="12" height="12" transform="rotate(180 80 92)" fill="#3DADFF"/>
<rect x="64" y="92" width="12" height="12" transform="rotate(180 64 92)" fill="#3DADFF" fill-opacity="0.25"/>
<rect x="48" y="92" width="12" height="12" transform="rotate(180 48 92)" fill="#3DADFF"/>
<rect x="32" y="92" width="12" height="12" transform="rotate(180 32 92)" fill="#3DADFF"/>
<rect x="16" y="92" width="12" height="12" transform="rotate(180 16 92)" fill="#3DADFF" fill-opacity="0.25"/>
</g>
<g opacity="0.3">
<rect x="400" y="152" width="12" height="12" transform="rotate(180 400 152)" fill="#3DADFF"/>
<rect x="384" y="152" width="12" height="12" transform="rotate(180 384 152)" fill="#3DADFF"/>
<rect x="368" y="152" width="12" height="12" transform="rotate(180 368 152)" fill="white" fill-opacity="0.1"/>
<rect x="352" y="152" width="12" height="12" transform="rotate(180 352 152)" fill="#3DADFF"/>
<rect x="336" y="152" width="12" height="12" transform="rotate(180 336 152)" fill="#3DADFF"/>
<rect x="320" y="152" width="12" height="12" transform="rotate(180 320 152)" fill="#3DADFF"/>
<rect x="304" y="152" width="12" height="12" transform="rotate(180 304 152)" fill="#3DADFF"/>
<rect x="288" y="152" width="12" height="12" transform="rotate(180 288 152)" fill="#3DADFF"/>
<rect x="272" y="152" width="12" height="12" transform="rotate(180 272 152)" fill="white" fill-opacity="0.1"/>
<rect x="256" y="152" width="12" height="12" transform="rotate(180 256 152)" fill="#3DADFF"/>
<rect x="240" y="152" width="12" height="12" transform="rotate(180 240 152)" fill="#3DADFF"/>
<rect x="224" y="152" width="12" height="12" transform="rotate(180 224 152)" fill="#3DADFF"/>
<rect x="208" y="152" width="12" height="12" transform="rotate(180 208 152)" fill="#3DADFF" fill-opacity="0.25"/>
<rect x="192" y="152" width="12" height="12" transform="rotate(180 192 152)" fill="#3DADFF"/>
<rect x="176" y="152" width="12" height="12" transform="rotate(180 176 152)" fill="#3DADFF" fill-opacity="0.25"/>
<rect x="160" y="152" width="12" height="12" transform="rotate(180 160 152)" fill="#3DADFF"/>
<rect x="144" y="152" width="12" height="12" transform="rotate(180 144 152)" fill="#3DADFF"/>
<rect x="128" y="152" width="12" height="12" transform="rotate(180 128 152)" fill="#3DADFF"/>
<rect x="112" y="152" width="12" height="12" transform="rotate(180 112 152)" fill="#3DADFF"/>
<rect x="96" y="152" width="12" height="12" transform="rotate(180 96 152)" fill="#3DADFF" fill-opacity="0.25"/>
<rect x="80" y="152" width="12" height="12" transform="rotate(180 80 152)" fill="#3DADFF"/>
<rect x="64" y="152" width="12" height="12" transform="rotate(180 64 152)" fill="#3DADFF"/>
<rect x="48" y="152" width="12" height="12" transform="rotate(180 48 152)" fill="#3DADFF"/>
<rect x="32" y="152" width="12" height="12" transform="rotate(180 32 152)" fill="#3DADFF" fill-opacity="0.25"/>
<rect x="16" y="152" width="12" height="12" transform="rotate(180 16 152)" fill="#3DADFF"/>
</g>
<g opacity="0.3">
<rect x="400" y="28" width="12" height="12" transform="rotate(180 400 28)" fill="#3DADFF"/>
<rect x="384" y="28" width="12" height="12" transform="rotate(180 384 28)" fill="#3DADFF"/>
<rect x="368" y="28" width="12" height="12" transform="rotate(180 368 28)" fill="white" fill-opacity="0.1"/>
<rect x="352" y="28" width="12" height="12" transform="rotate(180 352 28)" fill="#3DADFF"/>
<rect x="336" y="28" width="12" height="12" transform="rotate(180 336 28)" fill="#3DADFF"/>
<rect x="320" y="28" width="12" height="12" transform="rotate(180 320 28)" fill="#3DADFF"/>
<rect x="304" y="28" width="12" height="12" transform="rotate(180 304 28)" fill="#3DADFF"/>
<rect x="288" y="28" width="12" height="12" transform="rotate(180 288 28)" fill="#3DADFF"/>
<rect x="272" y="28" width="12" height="12" transform="rotate(180 272 28)" fill="white" fill-opacity="0.1"/>
<rect x="256" y="28" width="12" height="12" transform="rotate(180 256 28)" fill="#3DADFF"/>
<rect x="240" y="28" width="12" height="12" transform="rotate(180 240 28)" fill="#3DADFF"/>
<rect x="224" y="28" width="12" height="12" transform="rotate(180 224 28)" fill="#3DADFF"/>
<rect x="208" y="28" width="12" height="12" transform="rotate(180 208 28)" fill="#3DADFF" fill-opacity="0.25"/>
<rect x="192" y="28" width="12" height="12" transform="rotate(180 192 28)" fill="#3DADFF"/>
<rect x="176" y="28" width="12" height="12" transform="rotate(180 176 28)" fill="#3DADFF" fill-opacity="0.25"/>
<rect x="160" y="28" width="12" height="12" transform="rotate(180 160 28)" fill="#3DADFF"/>
<rect x="144" y="28" width="12" height="12" transform="rotate(180 144 28)" fill="#3DADFF"/>
<rect x="128" y="28" width="12" height="12" transform="rotate(180 128 28)" fill="#3DADFF"/>
<rect x="112" y="28" width="12" height="12" transform="rotate(180 112 28)" fill="#3DADFF"/>
<rect x="96" y="28" width="12" height="12" transform="rotate(180 96 28)" fill="#3DADFF" fill-opacity="0.25"/>
<rect x="80" y="28" width="12" height="12" transform="rotate(180 80 28)" fill="#3DADFF"/>
<rect x="64" y="28" width="12" height="12" transform="rotate(180 64 28)" fill="#3DADFF"/>
<rect x="48" y="28" width="12" height="12" transform="rotate(180 48 28)" fill="#3DADFF"/>
<rect x="32" y="28" width="12" height="12" transform="rotate(180 32 28)" fill="#3DADFF" fill-opacity="0.25"/>
<rect x="16" y="28" width="12" height="12" transform="rotate(180 16 28)" fill="#3DADFF"/>
</g>
<g opacity="0.3">
<rect x="400" y="232" width="12" height="12" transform="rotate(180 400 232)" fill="#3DADFF"/>
<rect x="384" y="232" width="12" height="12" transform="rotate(180 384 232)" fill="white" fill-opacity="0.1"/>
<rect x="368" y="232" width="12" height="12" transform="rotate(180 368 232)" fill="#3DADFF"/>
<rect x="352" y="232" width="12" height="12" transform="rotate(180 352 232)" fill="#3DADFF"/>
<rect x="336" y="232" width="12" height="12" transform="rotate(180 336 232)" fill="#3DADFF"/>
<rect x="320" y="232" width="12" height="12" transform="rotate(180 320 232)" fill="#3DADFF"/>
<rect x="304" y="232" width="12" height="12" transform="rotate(180 304 232)" fill="white" fill-opacity="0.1"/>
<rect x="288" y="232" width="12" height="12" transform="rotate(180 288 232)" fill="#3DADFF"/>
<rect x="272" y="232" width="12" height="12" transform="rotate(180 272 232)" fill="#3DADFF"/>
<rect x="256" y="232" width="12" height="12" transform="rotate(180 256 232)" fill="#3DADFF"/>
<rect x="240" y="232" width="12" height="12" transform="rotate(180 240 232)" fill="white" fill-opacity="0.1"/>
<rect x="224" y="232" width="12" height="12" transform="rotate(180 224 232)" fill="#3DADFF"/>
<rect x="208" y="232" width="12" height="12" transform="rotate(180 208 232)" fill="#3DADFF" fill-opacity="0.25"/>
<rect x="192" y="232" width="12" height="12" transform="rotate(180 192 232)" fill="#3DADFF"/>
<rect x="176" y="232" width="12" height="12" transform="rotate(180 176 232)" fill="#3DADFF" fill-opacity="0.25"/>
<rect x="160" y="232" width="12" height="12" transform="rotate(180 160 232)" fill="#3DADFF" fill-opacity="0.25"/>
<rect x="144" y="232" width="12" height="12" transform="rotate(180 144 232)" fill="#3DADFF"/>
<rect x="128" y="232" width="12" height="12" transform="rotate(180 128 232)" fill="#3DADFF"/>
<rect x="112" y="232" width="12" height="12" transform="rotate(180 112 232)" fill="#3DADFF" fill-opacity="0.25"/>
<rect x="96" y="232" width="12" height="12" transform="rotate(180 96 232)" fill="#3DADFF"/>
<rect x="80" y="232" width="12" height="12" transform="rotate(180 80 232)" fill="#3DADFF"/>
<rect x="64" y="232" width="12" height="12" transform="rotate(180 64 232)" fill="#3DADFF" fill-opacity="0.25"/>
<rect x="48" y="232" width="12" height="12" transform="rotate(180 48 232)" fill="#3DADFF"/>
<rect x="32" y="232" width="12" height="12" transform="rotate(180 32 232)" fill="#3DADFF"/>
<rect x="16" y="232" width="12" height="12" transform="rotate(180 16 232)" fill="#3DADFF"/>
</g>
<g opacity="0.3">
<rect x="400" y="108" width="12" height="12" transform="rotate(180 400 108)" fill="#3DADFF"/>
<rect x="384" y="108" width="12" height="12" transform="rotate(180 384 108)" fill="white" fill-opacity="0.1"/>
<rect x="368" y="108" width="12" height="12" transform="rotate(180 368 108)" fill="#3DADFF"/>
<rect x="352" y="108" width="12" height="12" transform="rotate(180 352 108)" fill="#3DADFF"/>
<rect x="336" y="108" width="12" height="12" transform="rotate(180 336 108)" fill="#3DADFF"/>
<rect x="320" y="108" width="12" height="12" transform="rotate(180 320 108)" fill="#3DADFF"/>
<rect x="304" y="108" width="12" height="12" transform="rotate(180 304 108)" fill="white" fill-opacity="0.1"/>
<rect x="288" y="108" width="12" height="12" transform="rotate(180 288 108)" fill="#3DADFF"/>
<rect x="272" y="108" width="12" height="12" transform="rotate(180 272 108)" fill="#3DADFF"/>
<rect x="256" y="108" width="12" height="12" transform="rotate(180 256 108)" fill="#3DADFF"/>
<rect x="240" y="108" width="12" height="12" transform="rotate(180 240 108)" fill="white" fill-opacity="0.1"/>
<rect x="224" y="108" width="12" height="12" transform="rotate(180 224 108)" fill="#3DADFF"/>
<rect x="208" y="108" width="12" height="12" transform="rotate(180 208 108)" fill="#3DADFF" fill-opacity="0.25"/>
<rect x="192" y="108" width="12" height="12" transform="rotate(180 192 108)" fill="#3DADFF"/>
<rect x="176" y="108" width="12" height="12" transform="rotate(180 176 108)" fill="#3DADFF" fill-opacity="0.25"/>
<rect x="160" y="108" width="12" height="12" transform="rotate(180 160 108)" fill="#3DADFF" fill-opacity="0.25"/>
<rect x="144" y="108" width="12" height="12" transform="rotate(180 144 108)" fill="#3DADFF"/>
<rect x="128" y="108" width="12" height="12" transform="rotate(180 128 108)" fill="#3DADFF"/>
<rect x="112" y="108" width="12" height="12" transform="rotate(180 112 108)" fill="#3DADFF" fill-opacity="0.25"/>
<rect x="96" y="108" width="12" height="12" transform="rotate(180 96 108)" fill="#3DADFF"/>
<rect x="80" y="108" width="12" height="12" transform="rotate(180 80 108)" fill="#3DADFF"/>
<rect x="64" y="108" width="12" height="12" transform="rotate(180 64 108)" fill="#3DADFF" fill-opacity="0.25"/>
<rect x="48" y="108" width="12" height="12" transform="rotate(180 48 108)" fill="#3DADFF"/>
<rect x="32" y="108" width="12" height="12" transform="rotate(180 32 108)" fill="#3DADFF"/>
<rect x="16" y="108" width="12" height="12" transform="rotate(180 16 108)" fill="#3DADFF"/>
</g>
<g opacity="0.3">
<rect x="400" y="168" width="12" height="12" transform="rotate(180 400 168)" fill="white" fill-opacity="0.1"/>
<rect x="384" y="168" width="12" height="12" transform="rotate(180 384 168)" fill="#3DADFF"/>
<rect x="368" y="168" width="12" height="12" transform="rotate(180 368 168)" fill="white" fill-opacity="0.1"/>
<rect x="352" y="168" width="12" height="12" transform="rotate(180 352 168)" fill="#3DADFF"/>
<rect x="336" y="168" width="12" height="12" transform="rotate(180 336 168)" fill="#3DADFF"/>
<rect x="320" y="168" width="12" height="12" transform="rotate(180 320 168)" fill="#3DADFF"/>
<rect x="304" y="168" width="12" height="12" transform="rotate(180 304 168)" fill="white" fill-opacity="0.1"/>
<rect x="288" y="168" width="12" height="12" transform="rotate(180 288 168)" fill="#3DADFF"/>
<rect x="272" y="168" width="12" height="12" transform="rotate(180 272 168)" fill="white" fill-opacity="0.1"/>
<rect x="256" y="168" width="12" height="12" transform="rotate(180 256 168)" fill="#3DADFF"/>
<rect x="240" y="168" width="12" height="12" transform="rotate(180 240 168)" fill="#3DADFF" fill-opacity="0.25"/>
<rect x="224" y="168" width="12" height="12" transform="rotate(180 224 168)" fill="#3DADFF"/>
<rect x="208" y="168" width="12" height="12" transform="rotate(180 208 168)" fill="#3DADFF"/>
<rect x="192" y="168" width="12" height="12" transform="rotate(180 192 168)" fill="#3DADFF" fill-opacity="0.25"/>
<rect x="176" y="168" width="12" height="12" transform="rotate(180 176 168)" fill="#3DADFF"/>
<rect x="160" y="168" width="12" height="12" transform="rotate(180 160 168)" fill="#3DADFF"/>
<rect x="144" y="168" width="12" height="12" transform="rotate(180 144 168)" fill="#3DADFF" fill-opacity="0.25"/>
<rect x="128" y="168" width="12" height="12" transform="rotate(180 128 168)" fill="#3DADFF" fill-opacity="0.25"/>
<rect x="112" y="168" width="12" height="12" transform="rotate(180 112 168)" fill="#3DADFF"/>
<rect x="96" y="168" width="12" height="12" transform="rotate(180 96 168)" fill="#3DADFF"/>
<rect x="80" y="168" width="12" height="12" transform="rotate(180 80 168)" fill="#3DADFF" fill-opacity="0.25"/>
<rect x="64" y="168" width="12" height="12" transform="rotate(180 64 168)" fill="#3DADFF"/>
<rect x="48" y="168" width="12" height="12" transform="rotate(180 48 168)" fill="#3DADFF"/>
<rect x="32" y="168" width="12" height="12" transform="rotate(180 32 168)" fill="#3DADFF" fill-opacity="0.25"/>
<rect x="16" y="168" width="12" height="12" transform="rotate(180 16 168)" fill="#3DADFF"/>
</g>
<g opacity="0.3">
<rect x="400" y="44" width="12" height="12" transform="rotate(180 400 44)" fill="white" fill-opacity="0.1"/>
<rect x="384" y="44" width="12" height="12" transform="rotate(180 384 44)" fill="#3DADFF"/>
<rect x="368" y="44" width="12" height="12" transform="rotate(180 368 44)" fill="white" fill-opacity="0.1"/>
<rect x="352" y="44" width="12" height="12" transform="rotate(180 352 44)" fill="#3DADFF"/>
<rect x="336" y="44" width="12" height="12" transform="rotate(180 336 44)" fill="#3DADFF"/>
<rect x="320" y="44" width="12" height="12" transform="rotate(180 320 44)" fill="#3DADFF"/>
<rect x="304" y="44" width="12" height="12" transform="rotate(180 304 44)" fill="white" fill-opacity="0.1"/>
<rect x="288" y="44" width="12" height="12" transform="rotate(180 288 44)" fill="#3DADFF"/>
<rect x="272" y="44" width="12" height="12" transform="rotate(180 272 44)" fill="white" fill-opacity="0.1"/>
<rect x="256" y="44" width="12" height="12" transform="rotate(180 256 44)" fill="#3DADFF"/>
<rect x="240" y="44" width="12" height="12" transform="rotate(180 240 44)" fill="#3DADFF" fill-opacity="0.25"/>
<rect x="224" y="44" width="12" height="12" transform="rotate(180 224 44)" fill="#3DADFF"/>
<rect x="208" y="44" width="12" height="12" transform="rotate(180 208 44)" fill="#3DADFF"/>
<rect x="192" y="44" width="12" height="12" transform="rotate(180 192 44)" fill="#3DADFF" fill-opacity="0.25"/>
<rect x="176" y="44" width="12" height="12" transform="rotate(180 176 44)" fill="#3DADFF"/>
<rect x="160" y="44" width="12" height="12" transform="rotate(180 160 44)" fill="#3DADFF"/>
<rect x="144" y="44" width="12" height="12" transform="rotate(180 144 44)" fill="#3DADFF" fill-opacity="0.25"/>
<rect x="128" y="44" width="12" height="12" transform="rotate(180 128 44)" fill="#3DADFF" fill-opacity="0.25"/>
<rect x="112" y="44" width="12" height="12" transform="rotate(180 112 44)" fill="#3DADFF"/>
<rect x="96" y="44" width="12" height="12" transform="rotate(180 96 44)" fill="#3DADFF"/>
<rect x="80" y="44" width="12" height="12" transform="rotate(180 80 44)" fill="#3DADFF" fill-opacity="0.25"/>
<rect x="64" y="44" width="12" height="12" transform="rotate(180 64 44)" fill="#3DADFF"/>
<rect x="48" y="44" width="12" height="12" transform="rotate(180 48 44)" fill="#3DADFF"/>
<rect x="32" y="44" width="12" height="12" transform="rotate(180 32 44)" fill="#3DADFF" fill-opacity="0.25"/>
<rect x="16" y="44" width="12" height="12" transform="rotate(180 16 44)" fill="#3DADFF"/>
</g>
<g opacity="0.3">
<rect x="400" y="200" width="12" height="12" transform="rotate(180 400 200)" fill="#3DADFF"/>
<rect x="384" y="200" width="12" height="12" transform="rotate(180 384 200)" fill="#3DADFF"/>
<rect x="368" y="200" width="12" height="12" transform="rotate(180 368 200)" fill="#3DADFF"/>
<rect x="352" y="200" width="12" height="12" transform="rotate(180 352 200)" fill="white" fill-opacity="0.1"/>
<rect x="336" y="200" width="12" height="12" transform="rotate(180 336 200)" fill="#3DADFF"/>
<rect x="320" y="200" width="12" height="12" transform="rotate(180 320 200)" fill="#3DADFF"/>
<rect x="304" y="200" width="12" height="12" transform="rotate(180 304 200)" fill="white" fill-opacity="0.1"/>
<rect x="288" y="200" width="12" height="12" transform="rotate(180 288 200)" fill="#3DADFF"/>
<rect x="272" y="200" width="12" height="12" transform="rotate(180 272 200)" fill="#3DADFF"/>
<rect x="256" y="200" width="12" height="12" transform="rotate(180 256 200)" fill="#3DADFF"/>
<rect x="240" y="200" width="12" height="12" transform="rotate(180 240 200)" fill="#3DADFF"/>
<rect x="224" y="200" width="12" height="12" transform="rotate(180 224 200)" fill="#3DADFF" fill-opacity="0.25"/>
<rect x="208" y="200" width="12" height="12" transform="rotate(180 208 200)" fill="#3DADFF"/>
<rect x="192" y="200" width="12" height="12" transform="rotate(180 192 200)" fill="#3DADFF"/>
<rect x="176" y="200" width="12" height="12" transform="rotate(180 176 200)" fill="#3DADFF"/>
<rect x="160" y="200" width="12" height="12" transform="rotate(180 160 200)" fill="#3DADFF"/>
<rect x="144" y="200" width="12" height="12" transform="rotate(180 144 200)" fill="#3DADFF" fill-opacity="0.25"/>
<rect x="128" y="200" width="12" height="12" transform="rotate(180 128 200)" fill="#3DADFF"/>
<rect x="112" y="200" width="12" height="12" transform="rotate(180 112 200)" fill="#3DADFF" fill-opacity="0.25"/>
<rect x="96" y="200" width="12" height="12" transform="rotate(180 96 200)" fill="#3DADFF"/>
<rect x="80" y="200" width="12" height="12" transform="rotate(180 80 200)" fill="#3DADFF"/>
<rect x="64" y="200" width="12" height="12" transform="rotate(180 64 200)" fill="#3DADFF"/>
<rect x="48" y="200" width="12" height="12" transform="rotate(180 48 200)" fill="#3DADFF" fill-opacity="0.25"/>
<rect x="32" y="200" width="12" height="12" transform="rotate(180 32 200)" fill="#3DADFF" fill-opacity="0.25"/>
<rect x="16" y="200" width="12" height="12" transform="rotate(180 16 200)" fill="#3DADFF"/>
</g>
<g opacity="0.3">
<rect x="400" y="76" width="12" height="12" transform="rotate(180 400 76)" fill="#3DADFF"/>
<rect x="384" y="76" width="12" height="12" transform="rotate(180 384 76)" fill="#3DADFF"/>
<rect x="368" y="76" width="12" height="12" transform="rotate(180 368 76)" fill="#3DADFF"/>
<rect x="352" y="76" width="12" height="12" transform="rotate(180 352 76)" fill="white" fill-opacity="0.1"/>
<rect x="336" y="76" width="12" height="12" transform="rotate(180 336 76)" fill="#3DADFF"/>
<rect x="320" y="76" width="12" height="12" transform="rotate(180 320 76)" fill="#3DADFF"/>
<rect x="304" y="76" width="12" height="12" transform="rotate(180 304 76)" fill="white" fill-opacity="0.1"/>
<rect x="288" y="76" width="12" height="12" transform="rotate(180 288 76)" fill="#3DADFF"/>
<rect x="272" y="76" width="12" height="12" transform="rotate(180 272 76)" fill="#3DADFF"/>
<rect x="256" y="76" width="12" height="12" transform="rotate(180 256 76)" fill="#3DADFF"/>
<rect x="240" y="76" width="12" height="12" transform="rotate(180 240 76)" fill="#3DADFF"/>
<rect x="224" y="76" width="12" height="12" transform="rotate(180 224 76)" fill="#3DADFF" fill-opacity="0.25"/>
<rect x="208" y="76" width="12" height="12" transform="rotate(180 208 76)" fill="#3DADFF"/>
<rect x="192" y="76" width="12" height="12" transform="rotate(180 192 76)" fill="#3DADFF"/>
<rect x="176" y="76" width="12" height="12" transform="rotate(180 176 76)" fill="#3DADFF"/>
<rect x="160" y="76" width="12" height="12" transform="rotate(180 160 76)" fill="#3DADFF"/>
<rect x="144" y="76" width="12" height="12" transform="rotate(180 144 76)" fill="#3DADFF" fill-opacity="0.25"/>
<rect x="128" y="76" width="12" height="12" transform="rotate(180 128 76)" fill="#3DADFF"/>
<rect x="112" y="76" width="12" height="12" transform="rotate(180 112 76)" fill="#3DADFF" fill-opacity="0.25"/>
<rect x="96" y="76" width="12" height="12" transform="rotate(180 96 76)" fill="#3DADFF"/>
<rect x="80" y="76" width="12" height="12" transform="rotate(180 80 76)" fill="#3DADFF"/>
<rect x="64" y="76" width="12" height="12" transform="rotate(180 64 76)" fill="#3DADFF"/>
<rect x="48" y="76" width="12" height="12" transform="rotate(180 48 76)" fill="#3DADFF" fill-opacity="0.25"/>
<rect x="32" y="76" width="12" height="12" transform="rotate(180 32 76)" fill="#3DADFF" fill-opacity="0.25"/>
<rect x="16" y="76" width="12" height="12" transform="rotate(180 16 76)" fill="#3DADFF"/>
</g>
<g opacity="0.3">
<rect x="400" y="136" width="12" height="12" transform="rotate(180 400 136)" fill="#3DADFF"/>
<rect x="384" y="136" width="12" height="12" transform="rotate(180 384 136)" fill="#3DADFF"/>
<rect x="368" y="136" width="12" height="12" transform="rotate(180 368 136)" fill="white" fill-opacity="0.1"/>
<rect x="352" y="136" width="12" height="12" transform="rotate(180 352 136)" fill="#3DADFF"/>
<rect x="336" y="136" width="12" height="12" transform="rotate(180 336 136)" fill="#3DADFF"/>
<rect x="320" y="136" width="12" height="12" transform="rotate(180 320 136)" fill="#3DADFF"/>
<rect x="304" y="136" width="12" height="12" transform="rotate(180 304 136)" fill="#3DADFF"/>
<rect x="288" y="136" width="12" height="12" transform="rotate(180 288 136)" fill="#3DADFF"/>
<rect x="272" y="136" width="12" height="12" transform="rotate(180 272 136)" fill="white" fill-opacity="0.1"/>
<rect x="256" y="136" width="12" height="12" transform="rotate(180 256 136)" fill="#3DADFF"/>
<rect x="240" y="136" width="12" height="12" transform="rotate(180 240 136)" fill="#3DADFF"/>
<rect x="224" y="136" width="12" height="12" transform="rotate(180 224 136)" fill="#3DADFF"/>
<rect x="208" y="136" width="12" height="12" transform="rotate(180 208 136)" fill="#3DADFF"/>
<rect x="192" y="136" width="12" height="12" transform="rotate(180 192 136)" fill="#3DADFF"/>
<rect x="176" y="136" width="12" height="12" transform="rotate(180 176 136)" fill="#3DADFF" fill-opacity="0.25"/>
<rect x="160" y="136" width="12" height="12" transform="rotate(180 160 136)" fill="#3DADFF"/>
<rect x="144" y="136" width="12" height="12" transform="rotate(180 144 136)" fill="#3DADFF"/>
<rect x="128" y="136" width="12" height="12" transform="rotate(180 128 136)" fill="#3DADFF"/>
<rect x="112" y="136" width="12" height="12" transform="rotate(180 112 136)" fill="#3DADFF"/>
<rect x="96" y="136" width="12" height="12" transform="rotate(180 96 136)" fill="#3DADFF" fill-opacity="0.25"/>
<rect x="80" y="136" width="12" height="12" transform="rotate(180 80 136)" fill="#3DADFF"/>
<rect x="64" y="136" width="12" height="12" transform="rotate(180 64 136)" fill="#3DADFF"/>
<rect x="48" y="136" width="12" height="12" transform="rotate(180 48 136)" fill="#3DADFF"/>
<rect x="32" y="136" width="12" height="12" transform="rotate(180 32 136)" fill="#3DADFF" fill-opacity="0.25"/>
<rect x="16" y="136" width="12" height="12" transform="rotate(180 16 136)" fill="#3DADFF" fill-opacity="0.25"/>
</g>
<g opacity="0.3">
<rect x="400" y="12" width="12" height="12" transform="rotate(180 400 12)" fill="#3DADFF"/>
<rect x="384" y="12" width="12" height="12" transform="rotate(180 384 12)" fill="#3DADFF"/>
<rect x="368" y="12" width="12" height="12" transform="rotate(180 368 12)" fill="white" fill-opacity="0.1"/>
<rect x="352" y="12" width="12" height="12" transform="rotate(180 352 12)" fill="#3DADFF"/>
<rect x="336" y="12" width="12" height="12" transform="rotate(180 336 12)" fill="#3DADFF"/>
<rect x="320" y="12" width="12" height="12" transform="rotate(180 320 12)" fill="#3DADFF"/>
<rect x="304" y="12" width="12" height="12" transform="rotate(180 304 12)" fill="#3DADFF"/>
<rect x="288" y="12" width="12" height="12" transform="rotate(180 288 12)" fill="#3DADFF"/>
<rect x="272" y="12" width="12" height="12" transform="rotate(180 272 12)" fill="white" fill-opacity="0.1"/>
<rect x="256" y="12" width="12" height="12" transform="rotate(180 256 12)" fill="#3DADFF"/>
<rect x="240" y="12" width="12" height="12" transform="rotate(180 240 12)" fill="#3DADFF"/>
<rect x="224" y="12" width="12" height="12" transform="rotate(180 224 12)" fill="#3DADFF"/>
<rect x="208" y="12" width="12" height="12" transform="rotate(180 208 12)" fill="#3DADFF"/>
<rect x="192" y="12" width="12" height="12" transform="rotate(180 192 12)" fill="#3DADFF"/>
<rect x="176" y="12" width="12" height="12" transform="rotate(180 176 12)" fill="#3DADFF" fill-opacity="0.25"/>
<rect x="160" y="12" width="12" height="12" transform="rotate(180 160 12)" fill="#3DADFF"/>
<rect x="144" y="12" width="12" height="12" transform="rotate(180 144 12)" fill="#3DADFF"/>
<rect x="128" y="12" width="12" height="12" transform="rotate(180 128 12)" fill="#3DADFF"/>
<rect x="112" y="12" width="12" height="12" transform="rotate(180 112 12)" fill="#3DADFF"/>
<rect x="96" y="12" width="12" height="12" transform="rotate(180 96 12)" fill="#3DADFF" fill-opacity="0.25"/>
<rect x="80" y="12" width="12" height="12" transform="rotate(180 80 12)" fill="#3DADFF"/>
<rect x="64" y="12" width="12" height="12" transform="rotate(180 64 12)" fill="#3DADFF"/>
<rect x="48" y="12" width="12" height="12" transform="rotate(180 48 12)" fill="#3DADFF"/>
<rect x="32" y="12" width="12" height="12" transform="rotate(180 32 12)" fill="#3DADFF" fill-opacity="0.25"/>
<rect x="16" y="12" width="12" height="12" transform="rotate(180 16 12)" fill="#3DADFF" fill-opacity="0.25"/>
</g>
<rect width="460" height="242" transform="matrix(1 -8.74228e-08 -8.74228e-08 -1 -28 242)" fill="url(#paint0_linear_99_14763)"/>
<defs>
<linearGradient id="paint0_linear_99_14763" x1="230" y1="0" x2="230" y2="242" gradientUnits="userSpaceOnUse">
<stop stop-opacity="0"/>
<stop offset="1"/>
</linearGradient>
</defs>
</svg>
