<svg width="390" height="124" viewBox="0 0 390 124" fill="none" xmlns="http://www.w3.org/2000/svg">
<g clip-path="url(#clip0_99_14021)">
<rect width="390" height="124" fill="black"/>
<g opacity="0.1">
<rect x="2" width="12" height="12" fill="#3DADFF"/>
<rect x="18" width="12" height="12" fill="#3DADFF"/>
<rect x="34" width="12" height="12" fill="#3DADFF"/>
<rect x="50" width="12" height="12" fill="#3DADFF"/>
<rect x="66" width="12" height="12" fill="#3DADFF"/>
<rect x="82" width="12" height="12" fill="#3DADFF"/>
<rect x="98" width="12" height="12" fill="#3DADFF"/>
<rect x="114" width="12" height="12" fill="white" fill-opacity="0.1"/>
<rect x="130" width="12" height="12" fill="#3DADFF"/>
<rect x="146" width="12" height="12" fill="#3DADFF"/>
<rect x="162" width="12" height="12" fill="#3DADFF"/>
<rect x="178" width="12" height="12" fill="#3DADFF"/>
<rect x="194" width="12" height="12" fill="#3DADFF"/>
<rect x="210" width="12" height="12" fill="#3DADFF"/>
<rect x="226" width="12" height="12" fill="#3DADFF"/>
<rect x="242" width="12" height="12" fill="#3DADFF"/>
<rect x="258" width="12" height="12" fill="white" fill-opacity="0.25"/>
<rect x="274" width="12" height="12" fill="#3DADFF"/>
<rect x="290" width="12" height="12" fill="#3DADFF"/>
<rect x="306" width="12" height="12" fill="#3DADFF"/>
<rect x="322" width="12" height="12" fill="#3DADFF"/>
<rect x="338" width="12" height="12" fill="#3DADFF"/>
<rect x="354" width="12" height="12" fill="white" fill-opacity="0.25"/>
<rect x="370" width="12" height="12" fill="#3DADFF"/>
<rect x="386" width="12" height="12" fill="#3DADFF"/>
</g>
<g opacity="0.1">
<rect x="2" y="64" width="12" height="12" fill="#3DADFF"/>
<rect x="18" y="64" width="12" height="12" fill="#3DADFF"/>
<rect x="34" y="64" width="12" height="12" fill="white" fill-opacity="0.1"/>
<rect x="50" y="64" width="12" height="12" fill="#3DADFF"/>
<rect x="66" y="64" width="12" height="12" fill="white" fill-opacity="0.1"/>
<rect x="82" y="64" width="12" height="12" fill="#3DADFF"/>
<rect x="98" y="64" width="12" height="12" fill="white" fill-opacity="0.1"/>
<rect x="114" y="64" width="12" height="12" fill="#3DADFF"/>
<rect x="130" y="64" width="12" height="12" fill="white" fill-opacity="0.1"/>
<rect x="146" y="64" width="12" height="12" fill="#3DADFF"/>
<rect x="162" y="64" width="12" height="12" fill="#3DADFF"/>
<rect x="178" y="64" width="12" height="12" fill="#3DADFF"/>
<rect x="194" y="64" width="12" height="12" fill="white" fill-opacity="0.25"/>
<rect x="210" y="64" width="12" height="12" fill="#3DADFF"/>
<rect x="226" y="64" width="12" height="12" fill="#3DADFF"/>
<rect x="242" y="64" width="12" height="12" fill="#3DADFF"/>
<rect x="258" y="64" width="12" height="12" fill="white" fill-opacity="0.25"/>
<rect x="274" y="64" width="12" height="12" fill="#3DADFF"/>
<rect x="290" y="64" width="12" height="12" fill="#3DADFF"/>
<rect x="306" y="64" width="12" height="12" fill="#3DADFF"/>
<rect x="322" y="64" width="12" height="12" fill="white" fill-opacity="0.25"/>
<rect x="338" y="64" width="12" height="12" fill="#3DADFF"/>
<rect x="354" y="64" width="12" height="12" fill="white" fill-opacity="0.25"/>
<rect x="370" y="64" width="12" height="12" fill="#3DADFF"/>
<rect x="386" y="64" width="12" height="12" fill="#3DADFF"/>
</g>
<g opacity="0.1">
<rect x="2" y="32" width="12" height="12" fill="#3DADFF"/>
<rect x="18" y="32" width="12" height="12" fill="#3DADFF"/>
<rect x="34" y="32" width="12" height="12" fill="white" fill-opacity="0.1"/>
<rect x="50" y="32" width="12" height="12" fill="#3DADFF"/>
<rect x="66" y="32" width="12" height="12" fill="#3DADFF"/>
<rect x="82" y="32" width="12" height="12" fill="#3DADFF"/>
<rect x="98" y="32" width="12" height="12" fill="#3DADFF"/>
<rect x="114" y="32" width="12" height="12" fill="#3DADFF"/>
<rect x="130" y="32" width="12" height="12" fill="#3DADFF"/>
<rect x="146" y="32" width="12" height="12" fill="#3DADFF"/>
<rect x="162" y="32" width="12" height="12" fill="white" fill-opacity="0.1"/>
<rect x="178" y="32" width="12" height="12" fill="#3DADFF"/>
<rect x="194" y="32" width="12" height="12" fill="#3DADFF"/>
<rect x="210" y="32" width="12" height="12" fill="#3DADFF"/>
<rect x="226" y="32" width="12" height="12" fill="white" fill-opacity="0.25"/>
<rect x="242" y="32" width="12" height="12" fill="#3DADFF"/>
<rect x="258" y="32" width="12" height="12" fill="#3DADFF"/>
<rect x="274" y="32" width="12" height="12" fill="#3DADFF"/>
<rect x="290" y="32" width="12" height="12" fill="white" fill-opacity="0.25"/>
<rect x="306" y="32" width="12" height="12" fill="#3DADFF"/>
<rect x="322" y="32" width="12" height="12" fill="white" fill-opacity="0.25"/>
<rect x="338" y="32" width="12" height="12" fill="#3DADFF"/>
<rect x="354" y="32" width="12" height="12" fill="#3DADFF"/>
<rect x="370" y="32" width="12" height="12" fill="white" fill-opacity="0.25"/>
<rect x="386" y="32" width="12" height="12" fill="#3DADFF"/>
</g>
<g opacity="0.1">
<rect x="2" y="96" width="12" height="12" fill="white" fill-opacity="0.1"/>
<rect x="18" y="96" width="12" height="12" fill="#3DADFF"/>
<rect x="34" y="96" width="12" height="12" fill="#3DADFF"/>
<rect x="50" y="96" width="12" height="12" fill="#3DADFF"/>
<rect x="66" y="96" width="12" height="12" fill="white" fill-opacity="0.1"/>
<rect x="82" y="96" width="12" height="12" fill="#3DADFF"/>
<rect x="98" y="96" width="12" height="12" fill="#3DADFF"/>
<rect x="114" y="96" width="12" height="12" fill="#3DADFF"/>
<rect x="130" y="96" width="12" height="12" fill="#3DADFF"/>
<rect x="146" y="96" width="12" height="12" fill="#3DADFF"/>
<rect x="162" y="96" width="12" height="12" fill="white" fill-opacity="0.1"/>
<rect x="178" y="96" width="12" height="12" fill="#3DADFF"/>
<rect x="194" y="96" width="12" height="12" fill="#3DADFF"/>
<rect x="210" y="96" width="12" height="12" fill="#3DADFF"/>
<rect x="226" y="96" width="12" height="12" fill="white" fill-opacity="0.25"/>
<rect x="242" y="96" width="12" height="12" fill="#3DADFF"/>
<rect x="258" y="96" width="12" height="12" fill="white" fill-opacity="0.25"/>
<rect x="274" y="96" width="12" height="12" fill="#3DADFF"/>
<rect x="290" y="96" width="12" height="12" fill="#3DADFF"/>
<rect x="306" y="96" width="12" height="12" fill="#3DADFF"/>
<rect x="322" y="96" width="12" height="12" fill="#3DADFF"/>
<rect x="338" y="96" width="12" height="12" fill="white" fill-opacity="0.25"/>
<rect x="354" y="96" width="12" height="12" fill="#3DADFF"/>
<rect x="370" y="96" width="12" height="12" fill="#3DADFF"/>
<rect x="386" y="96" width="12" height="12" fill="#3DADFF"/>
</g>
<g opacity="0.1">
<rect x="2" y="16" width="12" height="12" fill="white" fill-opacity="0.1"/>
<rect x="18" y="16" width="12" height="12" fill="#3DADFF"/>
<rect x="34" y="16" width="12" height="12" fill="#3DADFF"/>
<rect x="50" y="16" width="12" height="12" fill="white" fill-opacity="0.1"/>
<rect x="66" y="16" width="12" height="12" fill="#3DADFF"/>
<rect x="82" y="16" width="12" height="12" fill="#3DADFF"/>
<rect x="98" y="16" width="12" height="12" fill="#3DADFF"/>
<rect x="114" y="16" width="12" height="12" fill="#3DADFF"/>
<rect x="130" y="16" width="12" height="12" fill="white" fill-opacity="0.1"/>
<rect x="146" y="16" width="12" height="12" fill="#3DADFF"/>
<rect x="162" y="16" width="12" height="12" fill="#3DADFF"/>
<rect x="178" y="16" width="12" height="12" fill="#3DADFF"/>
<rect x="194" y="16" width="12" height="12" fill="white" fill-opacity="0.1"/>
<rect x="210" y="16" width="12" height="12" fill="#3DADFF"/>
<rect x="226" y="16" width="12" height="12" fill="white" fill-opacity="0.25"/>
<rect x="242" y="16" width="12" height="12" fill="#3DADFF"/>
<rect x="258" y="16" width="12" height="12" fill="white" fill-opacity="0.25"/>
<rect x="274" y="16" width="12" height="12" fill="white" fill-opacity="0.25"/>
<rect x="290" y="16" width="12" height="12" fill="#3DADFF"/>
<rect x="306" y="16" width="12" height="12" fill="#3DADFF"/>
<rect x="322" y="16" width="12" height="12" fill="white" fill-opacity="0.25"/>
<rect x="338" y="16" width="12" height="12" fill="#3DADFF"/>
<rect x="354" y="16" width="12" height="12" fill="#3DADFF"/>
<rect x="370" y="16" width="12" height="12" fill="white" fill-opacity="0.25"/>
<rect x="386" y="16" width="12" height="12" fill="#3DADFF"/>
</g>
<g opacity="0.1">
<rect x="2" y="80" width="12" height="12" fill="#3DADFF"/>
<rect x="18" y="80" width="12" height="12" fill="#3DADFF"/>
<rect x="34" y="80" width="12" height="12" fill="white" fill-opacity="0.1"/>
<rect x="50" y="80" width="12" height="12" fill="#3DADFF"/>
<rect x="66" y="80" width="12" height="12" fill="white" fill-opacity="0.1"/>
<rect x="82" y="80" width="12" height="12" fill="#3DADFF"/>
<rect x="98" y="80" width="12" height="12" fill="#3DADFF"/>
<rect x="114" y="80" width="12" height="12" fill="#3DADFF"/>
<rect x="130" y="80" width="12" height="12" fill="white" fill-opacity="0.1"/>
<rect x="146" y="80" width="12" height="12" fill="#3DADFF"/>
<rect x="162" y="80" width="12" height="12" fill="white" fill-opacity="0.1"/>
<rect x="178" y="80" width="12" height="12" fill="#3DADFF"/>
<rect x="194" y="80" width="12" height="12" fill="white" fill-opacity="0.25"/>
<rect x="210" y="80" width="12" height="12" fill="#3DADFF"/>
<rect x="226" y="80" width="12" height="12" fill="#3DADFF"/>
<rect x="242" y="80" width="12" height="12" fill="white" fill-opacity="0.25"/>
<rect x="258" y="80" width="12" height="12" fill="#3DADFF"/>
<rect x="274" y="80" width="12" height="12" fill="#3DADFF"/>
<rect x="290" y="80" width="12" height="12" fill="white" fill-opacity="0.25"/>
<rect x="306" y="80" width="12" height="12" fill="white" fill-opacity="0.25"/>
<rect x="322" y="80" width="12" height="12" fill="#3DADFF"/>
<rect x="338" y="80" width="12" height="12" fill="#3DADFF"/>
<rect x="354" y="80" width="12" height="12" fill="white" fill-opacity="0.25"/>
<rect x="370" y="80" width="12" height="12" fill="#3DADFF"/>
<rect x="386" y="80" width="12" height="12" fill="#3DADFF"/>
</g>
<g opacity="0.1">
<rect x="2" y="48" width="12" height="12" fill="#3DADFF"/>
<rect x="18" y="48" width="12" height="12" fill="white" fill-opacity="0.1"/>
<rect x="34" y="48" width="12" height="12" fill="#3DADFF"/>
<rect x="50" y="48" width="12" height="12" fill="#3DADFF"/>
<rect x="66" y="48" width="12" height="12" fill="#3DADFF"/>
<rect x="82" y="48" width="12" height="12" fill="white" fill-opacity="0.1"/>
<rect x="98" y="48" width="12" height="12" fill="#3DADFF"/>
<rect x="114" y="48" width="12" height="12" fill="#3DADFF"/>
<rect x="130" y="48" width="12" height="12" fill="white" fill-opacity="0.1"/>
<rect x="146" y="48" width="12" height="12" fill="#3DADFF"/>
<rect x="162" y="48" width="12" height="12" fill="#3DADFF"/>
<rect x="178" y="48" width="12" height="12" fill="#3DADFF"/>
<rect x="194" y="48" width="12" height="12" fill="#3DADFF"/>
<rect x="210" y="48" width="12" height="12" fill="white" fill-opacity="0.25"/>
<rect x="226" y="48" width="12" height="12" fill="#3DADFF"/>
<rect x="242" y="48" width="12" height="12" fill="#3DADFF"/>
<rect x="258" y="48" width="12" height="12" fill="#3DADFF"/>
<rect x="274" y="48" width="12" height="12" fill="#3DADFF"/>
<rect x="290" y="48" width="12" height="12" fill="white" fill-opacity="0.25"/>
<rect x="306" y="48" width="12" height="12" fill="#3DADFF"/>
<rect x="322" y="48" width="12" height="12" fill="white" fill-opacity="0.25"/>
<rect x="338" y="48" width="12" height="12" fill="#3DADFF"/>
<rect x="354" y="48" width="12" height="12" fill="#3DADFF"/>
<rect x="370" y="48" width="12" height="12" fill="#3DADFF"/>
<rect x="386" y="48" width="12" height="12" fill="white" fill-opacity="0.25"/>
</g>
<g opacity="0.1">
<rect x="2" y="112" width="12" height="12" fill="white" fill-opacity="0.1"/>
<rect x="18" y="112" width="12" height="12" fill="#3DADFF"/>
<rect x="34" y="112" width="12" height="12" fill="#3DADFF"/>
<rect x="50" y="112" width="12" height="12" fill="#3DADFF"/>
<rect x="66" y="112" width="12" height="12" fill="white" fill-opacity="0.1"/>
<rect x="82" y="112" width="12" height="12" fill="#3DADFF"/>
<rect x="98" y="112" width="12" height="12" fill="#3DADFF"/>
<rect x="114" y="112" width="12" height="12" fill="#3DADFF"/>
<rect x="130" y="112" width="12" height="12" fill="#3DADFF"/>
<rect x="146" y="112" width="12" height="12" fill="#3DADFF"/>
<rect x="162" y="112" width="12" height="12" fill="white" fill-opacity="0.1"/>
<rect x="178" y="112" width="12" height="12" fill="#3DADFF"/>
<rect x="194" y="112" width="12" height="12" fill="#3DADFF"/>
<rect x="210" y="112" width="12" height="12" fill="#3DADFF"/>
<rect x="226" y="112" width="12" height="12" fill="#3DADFF"/>
<rect x="242" y="112" width="12" height="12" fill="#3DADFF"/>
<rect x="258" y="112" width="12" height="12" fill="white" fill-opacity="0.25"/>
<rect x="274" y="112" width="12" height="12" fill="#3DADFF"/>
<rect x="290" y="112" width="12" height="12" fill="#3DADFF"/>
<rect x="306" y="112" width="12" height="12" fill="#3DADFF"/>
<rect x="322" y="112" width="12" height="12" fill="#3DADFF"/>
<rect x="338" y="112" width="12" height="12" fill="white" fill-opacity="0.25"/>
<rect x="354" y="112" width="12" height="12" fill="#3DADFF"/>
<rect x="370" y="112" width="12" height="12" fill="#3DADFF"/>
<rect x="386" y="112" width="12" height="12" fill="#3DADFF"/>
</g>
</g>
<defs>
<clipPath id="clip0_99_14021">
<rect width="390" height="124" fill="white"/>
</clipPath>
</defs>
</svg>
