<svg width="1346" height="124" viewBox="0 0 1346 124" fill="none" xmlns="http://www.w3.org/2000/svg">
<g clip-path="url(#clip0_93_9918)">
<rect width="1346" height="124" fill="black"/>
<g opacity="0.1">
<rect x="2" width="12" height="12" fill="#3DADFF"/>
<rect x="18" width="12" height="12" fill="#3DADFF"/>
<rect x="34" width="12" height="12" fill="#3DADFF"/>
<rect x="50" width="12" height="12" fill="#3DADFF"/>
<rect x="66" width="12" height="12" fill="#3DADFF"/>
<rect x="82" width="12" height="12" fill="#3DADFF"/>
<rect x="98" width="12" height="12" fill="#3DADFF"/>
<rect x="114" width="12" height="12" fill="white" fill-opacity="0.1"/>
<rect x="130" width="12" height="12" fill="#3DADFF"/>
<rect x="146" width="12" height="12" fill="#3DADFF"/>
<rect x="162" width="12" height="12" fill="#3DADFF"/>
<rect x="178" width="12" height="12" fill="#3DADFF"/>
<rect x="194" width="12" height="12" fill="#3DADFF"/>
<rect x="210" width="12" height="12" fill="#3DADFF"/>
<rect x="226" width="12" height="12" fill="#3DADFF"/>
<rect x="242" width="12" height="12" fill="#3DADFF"/>
<rect x="258" width="12" height="12" fill="white" fill-opacity="0.25"/>
<rect x="274" width="12" height="12" fill="#3DADFF"/>
<rect x="290" width="12" height="12" fill="#3DADFF"/>
<rect x="306" width="12" height="12" fill="#3DADFF"/>
<rect x="322" width="12" height="12" fill="#3DADFF"/>
<rect x="338" width="12" height="12" fill="#3DADFF"/>
<rect x="354" width="12" height="12" fill="white" fill-opacity="0.25"/>
<rect x="370" width="12" height="12" fill="#3DADFF"/>
<rect x="386" width="12" height="12" fill="#3DADFF"/>
<rect x="402" width="12" height="12" fill="#3DADFF"/>
<rect x="418" width="12" height="12" fill="#3DADFF"/>
<rect x="434" width="12" height="12" fill="#3DADFF"/>
<rect x="450" width="12" height="12" fill="#3DADFF"/>
</g>
<g opacity="0.1">
<rect x="467" width="12" height="12" fill="#3DADFF"/>
<rect x="483" width="12" height="12" fill="#3DADFF"/>
<rect x="499" width="12" height="12" fill="#3DADFF"/>
<rect x="515" width="12" height="12" fill="#3DADFF"/>
<rect x="531" width="12" height="12" fill="#3DADFF"/>
<rect x="547" width="12" height="12" fill="#3DADFF"/>
<rect x="563" width="12" height="12" fill="#3DADFF"/>
<rect x="579" width="12" height="12" fill="white" fill-opacity="0.1"/>
<rect x="595" width="12" height="12" fill="#3DADFF"/>
<rect x="611" width="12" height="12" fill="#3DADFF"/>
<rect x="627" width="12" height="12" fill="#3DADFF"/>
<rect x="643" width="12" height="12" fill="#3DADFF"/>
<rect x="659" width="12" height="12" fill="#3DADFF"/>
<rect x="675" width="12" height="12" fill="#3DADFF"/>
<rect x="691" width="12" height="12" fill="#3DADFF"/>
<rect x="707" width="12" height="12" fill="#3DADFF"/>
<rect x="723" width="12" height="12" fill="white" fill-opacity="0.25"/>
<rect x="739" width="12" height="12" fill="#3DADFF"/>
<rect x="755" width="12" height="12" fill="#3DADFF"/>
<rect x="771" width="12" height="12" fill="#3DADFF"/>
<rect x="787" width="12" height="12" fill="#3DADFF"/>
<rect x="803" width="12" height="12" fill="#3DADFF"/>
<rect x="819" width="12" height="12" fill="white" fill-opacity="0.25"/>
<rect x="835" width="12" height="12" fill="#3DADFF"/>
<rect x="851" width="12" height="12" fill="#3DADFF"/>
<rect x="867" width="12" height="12" fill="#3DADFF"/>
<rect x="883" width="12" height="12" fill="#3DADFF"/>
<rect x="899" width="12" height="12" fill="#3DADFF"/>
<rect x="915" width="12" height="12" fill="#3DADFF"/>
</g>
<g opacity="0.1">
<rect x="932" width="12" height="12" fill="#3DADFF"/>
<rect x="948" width="12" height="12" fill="#3DADFF"/>
<rect x="964" width="12" height="12" fill="#3DADFF"/>
<rect x="980" width="12" height="12" fill="#3DADFF"/>
<rect x="996" width="12" height="12" fill="#3DADFF"/>
<rect x="1012" width="12" height="12" fill="#3DADFF"/>
<rect x="1028" width="12" height="12" fill="#3DADFF"/>
<rect x="1044" width="12" height="12" fill="white" fill-opacity="0.1"/>
<rect x="1060" width="12" height="12" fill="#3DADFF"/>
<rect x="1076" width="12" height="12" fill="#3DADFF"/>
<rect x="1092" width="12" height="12" fill="#3DADFF"/>
<rect x="1108" width="12" height="12" fill="#3DADFF"/>
<rect x="1124" width="12" height="12" fill="#3DADFF"/>
<rect x="1140" width="12" height="12" fill="#3DADFF"/>
<rect x="1156" width="12" height="12" fill="#3DADFF"/>
<rect x="1172" width="12" height="12" fill="#3DADFF"/>
<rect x="1188" width="12" height="12" fill="white" fill-opacity="0.25"/>
<rect x="1204" width="12" height="12" fill="#3DADFF"/>
<rect x="1220" width="12" height="12" fill="#3DADFF"/>
<rect x="1236" width="12" height="12" fill="#3DADFF"/>
<rect x="1252" width="12" height="12" fill="#3DADFF"/>
<rect x="1268" width="12" height="12" fill="#3DADFF"/>
<rect x="1284" width="12" height="12" fill="white" fill-opacity="0.25"/>
<rect x="1300" width="12" height="12" fill="#3DADFF"/>
<rect x="1316" width="12" height="12" fill="#3DADFF"/>
<rect x="1332" width="12" height="12" fill="#3DADFF"/>
</g>
<g opacity="0.1">
<rect x="2" y="64" width="12" height="12" fill="#3DADFF"/>
<rect x="18" y="64" width="12" height="12" fill="#3DADFF"/>
<rect x="34" y="64" width="12" height="12" fill="white" fill-opacity="0.1"/>
<rect x="50" y="64" width="12" height="12" fill="#3DADFF"/>
<rect x="66" y="64" width="12" height="12" fill="white" fill-opacity="0.1"/>
<rect x="82" y="64" width="12" height="12" fill="#3DADFF"/>
<rect x="98" y="64" width="12" height="12" fill="white" fill-opacity="0.1"/>
<rect x="114" y="64" width="12" height="12" fill="#3DADFF"/>
<rect x="130" y="64" width="12" height="12" fill="white" fill-opacity="0.1"/>
<rect x="146" y="64" width="12" height="12" fill="#3DADFF"/>
<rect x="162" y="64" width="12" height="12" fill="#3DADFF"/>
<rect x="178" y="64" width="12" height="12" fill="#3DADFF"/>
<rect x="194" y="64" width="12" height="12" fill="white" fill-opacity="0.25"/>
<rect x="210" y="64" width="12" height="12" fill="#3DADFF"/>
<rect x="226" y="64" width="12" height="12" fill="#3DADFF"/>
<rect x="242" y="64" width="12" height="12" fill="#3DADFF"/>
<rect x="258" y="64" width="12" height="12" fill="white" fill-opacity="0.25"/>
<rect x="274" y="64" width="12" height="12" fill="#3DADFF"/>
<rect x="290" y="64" width="12" height="12" fill="#3DADFF"/>
<rect x="306" y="64" width="12" height="12" fill="#3DADFF"/>
<rect x="322" y="64" width="12" height="12" fill="white" fill-opacity="0.25"/>
<rect x="338" y="64" width="12" height="12" fill="#3DADFF"/>
<rect x="354" y="64" width="12" height="12" fill="white" fill-opacity="0.25"/>
<rect x="370" y="64" width="12" height="12" fill="#3DADFF"/>
<rect x="386" y="64" width="12" height="12" fill="#3DADFF"/>
<rect x="402" y="64" width="12" height="12" fill="#3DADFF"/>
<rect x="418" y="64" width="12" height="12" fill="#3DADFF"/>
<rect x="434" y="64" width="12" height="12" fill="#3DADFF"/>
<rect x="450" y="64" width="12" height="12" fill="#3DADFF"/>
</g>
<g opacity="0.1">
<rect x="467" y="64" width="12" height="12" fill="#3DADFF"/>
<rect x="483" y="64" width="12" height="12" fill="#3DADFF"/>
<rect x="499" y="64" width="12" height="12" fill="white" fill-opacity="0.1"/>
<rect x="515" y="64" width="12" height="12" fill="#3DADFF"/>
<rect x="531" y="64" width="12" height="12" fill="white" fill-opacity="0.1"/>
<rect x="547" y="64" width="12" height="12" fill="#3DADFF"/>
<rect x="563" y="64" width="12" height="12" fill="white" fill-opacity="0.1"/>
<rect x="579" y="64" width="12" height="12" fill="#3DADFF"/>
<rect x="595" y="64" width="12" height="12" fill="white" fill-opacity="0.1"/>
<rect x="611" y="64" width="12" height="12" fill="#3DADFF"/>
<rect x="627" y="64" width="12" height="12" fill="#3DADFF"/>
<rect x="643" y="64" width="12" height="12" fill="#3DADFF"/>
<rect x="659" y="64" width="12" height="12" fill="white" fill-opacity="0.25"/>
<rect x="675" y="64" width="12" height="12" fill="#3DADFF"/>
<rect x="691" y="64" width="12" height="12" fill="#3DADFF"/>
<rect x="707" y="64" width="12" height="12" fill="#3DADFF"/>
<rect x="723" y="64" width="12" height="12" fill="white" fill-opacity="0.25"/>
<rect x="739" y="64" width="12" height="12" fill="#3DADFF"/>
<rect x="755" y="64" width="12" height="12" fill="#3DADFF"/>
<rect x="771" y="64" width="12" height="12" fill="#3DADFF"/>
<rect x="787" y="64" width="12" height="12" fill="white" fill-opacity="0.25"/>
<rect x="803" y="64" width="12" height="12" fill="#3DADFF"/>
<rect x="819" y="64" width="12" height="12" fill="white" fill-opacity="0.25"/>
<rect x="835" y="64" width="12" height="12" fill="#3DADFF"/>
<rect x="851" y="64" width="12" height="12" fill="#3DADFF"/>
<rect x="867" y="64" width="12" height="12" fill="#3DADFF"/>
<rect x="883" y="64" width="12" height="12" fill="#3DADFF"/>
<rect x="899" y="64" width="12" height="12" fill="#3DADFF"/>
<rect x="915" y="64" width="12" height="12" fill="#3DADFF"/>
</g>
<g opacity="0.1">
<rect x="932" y="64" width="12" height="12" fill="#3DADFF"/>
<rect x="948" y="64" width="12" height="12" fill="#3DADFF"/>
<rect x="964" y="64" width="12" height="12" fill="white" fill-opacity="0.1"/>
<rect x="980" y="64" width="12" height="12" fill="#3DADFF"/>
<rect x="996" y="64" width="12" height="12" fill="white" fill-opacity="0.1"/>
<rect x="1012" y="64" width="12" height="12" fill="#3DADFF"/>
<rect x="1028" y="64" width="12" height="12" fill="white" fill-opacity="0.1"/>
<rect x="1044" y="64" width="12" height="12" fill="#3DADFF"/>
<rect x="1060" y="64" width="12" height="12" fill="white" fill-opacity="0.1"/>
<rect x="1076" y="64" width="12" height="12" fill="#3DADFF"/>
<rect x="1092" y="64" width="12" height="12" fill="#3DADFF"/>
<rect x="1108" y="64" width="12" height="12" fill="#3DADFF"/>
<rect x="1124" y="64" width="12" height="12" fill="white" fill-opacity="0.25"/>
<rect x="1140" y="64" width="12" height="12" fill="#3DADFF"/>
<rect x="1156" y="64" width="12" height="12" fill="#3DADFF"/>
<rect x="1172" y="64" width="12" height="12" fill="#3DADFF"/>
<rect x="1188" y="64" width="12" height="12" fill="white" fill-opacity="0.25"/>
<rect x="1204" y="64" width="12" height="12" fill="#3DADFF"/>
<rect x="1220" y="64" width="12" height="12" fill="#3DADFF"/>
<rect x="1236" y="64" width="12" height="12" fill="#3DADFF"/>
<rect x="1252" y="64" width="12" height="12" fill="white" fill-opacity="0.25"/>
<rect x="1268" y="64" width="12" height="12" fill="#3DADFF"/>
<rect x="1284" y="64" width="12" height="12" fill="white" fill-opacity="0.25"/>
<rect x="1300" y="64" width="12" height="12" fill="#3DADFF"/>
<rect x="1316" y="64" width="12" height="12" fill="#3DADFF"/>
<rect x="1332" y="64" width="12" height="12" fill="#3DADFF"/>
</g>
<g opacity="0.1">
<rect x="2" y="32" width="12" height="12" fill="#3DADFF"/>
<rect x="18" y="32" width="12" height="12" fill="#3DADFF"/>
<rect x="34" y="32" width="12" height="12" fill="white" fill-opacity="0.1"/>
<rect x="50" y="32" width="12" height="12" fill="#3DADFF"/>
<rect x="66" y="32" width="12" height="12" fill="#3DADFF"/>
<rect x="82" y="32" width="12" height="12" fill="#3DADFF"/>
<rect x="98" y="32" width="12" height="12" fill="#3DADFF"/>
<rect x="114" y="32" width="12" height="12" fill="#3DADFF"/>
<rect x="130" y="32" width="12" height="12" fill="#3DADFF"/>
<rect x="146" y="32" width="12" height="12" fill="#3DADFF"/>
<rect x="162" y="32" width="12" height="12" fill="white" fill-opacity="0.1"/>
<rect x="178" y="32" width="12" height="12" fill="#3DADFF"/>
<rect x="194" y="32" width="12" height="12" fill="#3DADFF"/>
<rect x="210" y="32" width="12" height="12" fill="#3DADFF"/>
<rect x="226" y="32" width="12" height="12" fill="white" fill-opacity="0.25"/>
<rect x="242" y="32" width="12" height="12" fill="#3DADFF"/>
<rect x="258" y="32" width="12" height="12" fill="#3DADFF"/>
<rect x="274" y="32" width="12" height="12" fill="#3DADFF"/>
<rect x="290" y="32" width="12" height="12" fill="white" fill-opacity="0.25"/>
<rect x="306" y="32" width="12" height="12" fill="#3DADFF"/>
<rect x="322" y="32" width="12" height="12" fill="white" fill-opacity="0.25"/>
<rect x="338" y="32" width="12" height="12" fill="#3DADFF"/>
<rect x="354" y="32" width="12" height="12" fill="#3DADFF"/>
<rect x="370" y="32" width="12" height="12" fill="white" fill-opacity="0.25"/>
<rect x="386" y="32" width="12" height="12" fill="#3DADFF"/>
<rect x="402" y="32" width="12" height="12" fill="#3DADFF"/>
<rect x="418" y="32" width="12" height="12" fill="white" fill-opacity="0.25"/>
<rect x="434" y="32" width="12" height="12" fill="#3DADFF"/>
<rect x="450" y="32" width="12" height="12" fill="#3DADFF"/>
</g>
<g opacity="0.1">
<rect x="467" y="32" width="12" height="12" fill="#3DADFF"/>
<rect x="483" y="32" width="12" height="12" fill="#3DADFF"/>
<rect x="499" y="32" width="12" height="12" fill="white" fill-opacity="0.1"/>
<rect x="515" y="32" width="12" height="12" fill="#3DADFF"/>
<rect x="531" y="32" width="12" height="12" fill="#3DADFF"/>
<rect x="547" y="32" width="12" height="12" fill="#3DADFF"/>
<rect x="563" y="32" width="12" height="12" fill="#3DADFF"/>
<rect x="579" y="32" width="12" height="12" fill="#3DADFF"/>
<rect x="595" y="32" width="12" height="12" fill="#3DADFF"/>
<rect x="611" y="32" width="12" height="12" fill="#3DADFF"/>
<rect x="627" y="32" width="12" height="12" fill="white" fill-opacity="0.1"/>
<rect x="643" y="32" width="12" height="12" fill="#3DADFF"/>
<rect x="659" y="32" width="12" height="12" fill="#3DADFF"/>
<rect x="675" y="32" width="12" height="12" fill="#3DADFF"/>
<rect x="691" y="32" width="12" height="12" fill="white" fill-opacity="0.25"/>
<rect x="707" y="32" width="12" height="12" fill="#3DADFF"/>
<rect x="723" y="32" width="12" height="12" fill="#3DADFF"/>
<rect x="739" y="32" width="12" height="12" fill="#3DADFF"/>
<rect x="755" y="32" width="12" height="12" fill="white" fill-opacity="0.25"/>
<rect x="771" y="32" width="12" height="12" fill="#3DADFF"/>
<rect x="787" y="32" width="12" height="12" fill="white" fill-opacity="0.25"/>
<rect x="803" y="32" width="12" height="12" fill="#3DADFF"/>
<rect x="819" y="32" width="12" height="12" fill="#3DADFF"/>
<rect x="835" y="32" width="12" height="12" fill="white" fill-opacity="0.25"/>
<rect x="851" y="32" width="12" height="12" fill="#3DADFF"/>
<rect x="867" y="32" width="12" height="12" fill="#3DADFF"/>
<rect x="883" y="32" width="12" height="12" fill="white" fill-opacity="0.25"/>
<rect x="899" y="32" width="12" height="12" fill="#3DADFF"/>
<rect x="915" y="32" width="12" height="12" fill="#3DADFF"/>
</g>
<g opacity="0.1">
<rect x="932" y="32" width="12" height="12" fill="#3DADFF"/>
<rect x="948" y="32" width="12" height="12" fill="#3DADFF"/>
<rect x="964" y="32" width="12" height="12" fill="white" fill-opacity="0.1"/>
<rect x="980" y="32" width="12" height="12" fill="#3DADFF"/>
<rect x="996" y="32" width="12" height="12" fill="#3DADFF"/>
<rect x="1012" y="32" width="12" height="12" fill="#3DADFF"/>
<rect x="1028" y="32" width="12" height="12" fill="#3DADFF"/>
<rect x="1044" y="32" width="12" height="12" fill="#3DADFF"/>
<rect x="1060" y="32" width="12" height="12" fill="#3DADFF"/>
<rect x="1076" y="32" width="12" height="12" fill="#3DADFF"/>
<rect x="1092" y="32" width="12" height="12" fill="white" fill-opacity="0.1"/>
<rect x="1108" y="32" width="12" height="12" fill="#3DADFF"/>
<rect x="1124" y="32" width="12" height="12" fill="#3DADFF"/>
<rect x="1140" y="32" width="12" height="12" fill="#3DADFF"/>
<rect x="1156" y="32" width="12" height="12" fill="white" fill-opacity="0.25"/>
<rect x="1172" y="32" width="12" height="12" fill="#3DADFF"/>
<rect x="1188" y="32" width="12" height="12" fill="#3DADFF"/>
<rect x="1204" y="32" width="12" height="12" fill="#3DADFF"/>
<rect x="1220" y="32" width="12" height="12" fill="white" fill-opacity="0.25"/>
<rect x="1236" y="32" width="12" height="12" fill="#3DADFF"/>
<rect x="1252" y="32" width="12" height="12" fill="white" fill-opacity="0.25"/>
<rect x="1268" y="32" width="12" height="12" fill="#3DADFF"/>
<rect x="1284" y="32" width="12" height="12" fill="#3DADFF"/>
<rect x="1300" y="32" width="12" height="12" fill="white" fill-opacity="0.25"/>
<rect x="1316" y="32" width="12" height="12" fill="#3DADFF"/>
<rect x="1332" y="32" width="12" height="12" fill="#3DADFF"/>
</g>
<g opacity="0.1">
<rect x="2" y="96" width="12" height="12" fill="white" fill-opacity="0.1"/>
<rect x="18" y="96" width="12" height="12" fill="#3DADFF"/>
<rect x="34" y="96" width="12" height="12" fill="#3DADFF"/>
<rect x="50" y="96" width="12" height="12" fill="#3DADFF"/>
<rect x="66" y="96" width="12" height="12" fill="white" fill-opacity="0.1"/>
<rect x="82" y="96" width="12" height="12" fill="#3DADFF"/>
<rect x="98" y="96" width="12" height="12" fill="#3DADFF"/>
<rect x="114" y="96" width="12" height="12" fill="#3DADFF"/>
<rect x="130" y="96" width="12" height="12" fill="#3DADFF"/>
<rect x="146" y="96" width="12" height="12" fill="#3DADFF"/>
<rect x="162" y="96" width="12" height="12" fill="white" fill-opacity="0.1"/>
<rect x="178" y="96" width="12" height="12" fill="#3DADFF"/>
<rect x="194" y="96" width="12" height="12" fill="#3DADFF"/>
<rect x="210" y="96" width="12" height="12" fill="#3DADFF"/>
<rect x="226" y="96" width="12" height="12" fill="white" fill-opacity="0.25"/>
<rect x="242" y="96" width="12" height="12" fill="#3DADFF"/>
<rect x="258" y="96" width="12" height="12" fill="white" fill-opacity="0.25"/>
<rect x="274" y="96" width="12" height="12" fill="#3DADFF"/>
<rect x="290" y="96" width="12" height="12" fill="#3DADFF"/>
<rect x="306" y="96" width="12" height="12" fill="#3DADFF"/>
<rect x="322" y="96" width="12" height="12" fill="#3DADFF"/>
<rect x="338" y="96" width="12" height="12" fill="white" fill-opacity="0.25"/>
<rect x="354" y="96" width="12" height="12" fill="#3DADFF"/>
<rect x="370" y="96" width="12" height="12" fill="#3DADFF"/>
<rect x="386" y="96" width="12" height="12" fill="#3DADFF"/>
<rect x="402" y="96" width="12" height="12" fill="white" fill-opacity="0.25"/>
<rect x="418" y="96" width="12" height="12" fill="#3DADFF"/>
<rect x="434" y="96" width="12" height="12" fill="white" fill-opacity="0.25"/>
<rect x="450" y="96" width="12" height="12" fill="#3DADFF"/>
</g>
<g opacity="0.1">
<rect x="467" y="96" width="12" height="12" fill="white" fill-opacity="0.1"/>
<rect x="483" y="96" width="12" height="12" fill="#3DADFF"/>
<rect x="499" y="96" width="12" height="12" fill="#3DADFF"/>
<rect x="515" y="96" width="12" height="12" fill="#3DADFF"/>
<rect x="531" y="96" width="12" height="12" fill="white" fill-opacity="0.1"/>
<rect x="547" y="96" width="12" height="12" fill="#3DADFF"/>
<rect x="563" y="96" width="12" height="12" fill="#3DADFF"/>
<rect x="579" y="96" width="12" height="12" fill="#3DADFF"/>
<rect x="595" y="96" width="12" height="12" fill="#3DADFF"/>
<rect x="611" y="96" width="12" height="12" fill="#3DADFF"/>
<rect x="627" y="96" width="12" height="12" fill="white" fill-opacity="0.1"/>
<rect x="643" y="96" width="12" height="12" fill="#3DADFF"/>
<rect x="659" y="96" width="12" height="12" fill="#3DADFF"/>
<rect x="675" y="96" width="12" height="12" fill="#3DADFF"/>
<rect x="691" y="96" width="12" height="12" fill="white" fill-opacity="0.25"/>
<rect x="707" y="96" width="12" height="12" fill="#3DADFF"/>
<rect x="723" y="96" width="12" height="12" fill="white" fill-opacity="0.25"/>
<rect x="739" y="96" width="12" height="12" fill="#3DADFF"/>
<rect x="755" y="96" width="12" height="12" fill="#3DADFF"/>
<rect x="771" y="96" width="12" height="12" fill="#3DADFF"/>
<rect x="787" y="96" width="12" height="12" fill="#3DADFF"/>
<rect x="803" y="96" width="12" height="12" fill="white" fill-opacity="0.25"/>
<rect x="819" y="96" width="12" height="12" fill="#3DADFF"/>
<rect x="835" y="96" width="12" height="12" fill="#3DADFF"/>
<rect x="851" y="96" width="12" height="12" fill="#3DADFF"/>
<rect x="867" y="96" width="12" height="12" fill="white" fill-opacity="0.25"/>
<rect x="883" y="96" width="12" height="12" fill="#3DADFF"/>
<rect x="899" y="96" width="12" height="12" fill="white" fill-opacity="0.25"/>
<rect x="915" y="96" width="12" height="12" fill="#3DADFF"/>
</g>
<g opacity="0.1">
<rect x="932" y="96" width="12" height="12" fill="white" fill-opacity="0.1"/>
<rect x="948" y="96" width="12" height="12" fill="#3DADFF"/>
<rect x="964" y="96" width="12" height="12" fill="#3DADFF"/>
<rect x="980" y="96" width="12" height="12" fill="#3DADFF"/>
<rect x="996" y="96" width="12" height="12" fill="white" fill-opacity="0.1"/>
<rect x="1012" y="96" width="12" height="12" fill="#3DADFF"/>
<rect x="1028" y="96" width="12" height="12" fill="#3DADFF"/>
<rect x="1044" y="96" width="12" height="12" fill="#3DADFF"/>
<rect x="1060" y="96" width="12" height="12" fill="#3DADFF"/>
<rect x="1076" y="96" width="12" height="12" fill="#3DADFF"/>
<rect x="1092" y="96" width="12" height="12" fill="white" fill-opacity="0.1"/>
<rect x="1108" y="96" width="12" height="12" fill="#3DADFF"/>
<rect x="1124" y="96" width="12" height="12" fill="#3DADFF"/>
<rect x="1140" y="96" width="12" height="12" fill="#3DADFF"/>
<rect x="1156" y="96" width="12" height="12" fill="white" fill-opacity="0.25"/>
<rect x="1172" y="96" width="12" height="12" fill="#3DADFF"/>
<rect x="1188" y="96" width="12" height="12" fill="white" fill-opacity="0.25"/>
<rect x="1204" y="96" width="12" height="12" fill="#3DADFF"/>
<rect x="1220" y="96" width="12" height="12" fill="#3DADFF"/>
<rect x="1236" y="96" width="12" height="12" fill="#3DADFF"/>
<rect x="1252" y="96" width="12" height="12" fill="#3DADFF"/>
<rect x="1268" y="96" width="12" height="12" fill="white" fill-opacity="0.25"/>
<rect x="1284" y="96" width="12" height="12" fill="#3DADFF"/>
<rect x="1300" y="96" width="12" height="12" fill="#3DADFF"/>
<rect x="1316" y="96" width="12" height="12" fill="#3DADFF"/>
<rect x="1332" y="96" width="12" height="12" fill="white" fill-opacity="0.25"/>
</g>
<g opacity="0.1">
<rect x="2" y="16" width="12" height="12" fill="white" fill-opacity="0.1"/>
<rect x="18" y="16" width="12" height="12" fill="#3DADFF"/>
<rect x="34" y="16" width="12" height="12" fill="#3DADFF"/>
<rect x="50" y="16" width="12" height="12" fill="white" fill-opacity="0.1"/>
<rect x="66" y="16" width="12" height="12" fill="#3DADFF"/>
<rect x="82" y="16" width="12" height="12" fill="#3DADFF"/>
<rect x="98" y="16" width="12" height="12" fill="#3DADFF"/>
<rect x="114" y="16" width="12" height="12" fill="#3DADFF"/>
<rect x="130" y="16" width="12" height="12" fill="white" fill-opacity="0.1"/>
<rect x="146" y="16" width="12" height="12" fill="#3DADFF"/>
<rect x="162" y="16" width="12" height="12" fill="#3DADFF"/>
<rect x="178" y="16" width="12" height="12" fill="#3DADFF"/>
<rect x="194" y="16" width="12" height="12" fill="white" fill-opacity="0.1"/>
<rect x="210" y="16" width="12" height="12" fill="#3DADFF"/>
<rect x="226" y="16" width="12" height="12" fill="white" fill-opacity="0.25"/>
<rect x="242" y="16" width="12" height="12" fill="#3DADFF"/>
<rect x="258" y="16" width="12" height="12" fill="white" fill-opacity="0.25"/>
<rect x="274" y="16" width="12" height="12" fill="white" fill-opacity="0.25"/>
<rect x="290" y="16" width="12" height="12" fill="#3DADFF"/>
<rect x="306" y="16" width="12" height="12" fill="#3DADFF"/>
<rect x="322" y="16" width="12" height="12" fill="white" fill-opacity="0.25"/>
<rect x="338" y="16" width="12" height="12" fill="#3DADFF"/>
<rect x="354" y="16" width="12" height="12" fill="#3DADFF"/>
<rect x="370" y="16" width="12" height="12" fill="white" fill-opacity="0.25"/>
<rect x="386" y="16" width="12" height="12" fill="#3DADFF"/>
<rect x="402" y="16" width="12" height="12" fill="#3DADFF"/>
<rect x="418" y="16" width="12" height="12" fill="#3DADFF"/>
<rect x="434" y="16" width="12" height="12" fill="#3DADFF"/>
<rect x="450" y="16" width="12" height="12" fill="#3DADFF"/>
</g>
<g opacity="0.1">
<rect x="467" y="16" width="12" height="12" fill="white" fill-opacity="0.1"/>
<rect x="483" y="16" width="12" height="12" fill="#3DADFF"/>
<rect x="499" y="16" width="12" height="12" fill="#3DADFF"/>
<rect x="515" y="16" width="12" height="12" fill="white" fill-opacity="0.1"/>
<rect x="531" y="16" width="12" height="12" fill="#3DADFF"/>
<rect x="547" y="16" width="12" height="12" fill="#3DADFF"/>
<rect x="563" y="16" width="12" height="12" fill="#3DADFF"/>
<rect x="579" y="16" width="12" height="12" fill="#3DADFF"/>
<rect x="595" y="16" width="12" height="12" fill="white" fill-opacity="0.1"/>
<rect x="611" y="16" width="12" height="12" fill="#3DADFF"/>
<rect x="627" y="16" width="12" height="12" fill="#3DADFF"/>
<rect x="643" y="16" width="12" height="12" fill="#3DADFF"/>
<rect x="659" y="16" width="12" height="12" fill="white" fill-opacity="0.1"/>
<rect x="675" y="16" width="12" height="12" fill="#3DADFF"/>
<rect x="691" y="16" width="12" height="12" fill="white" fill-opacity="0.25"/>
<rect x="707" y="16" width="12" height="12" fill="#3DADFF"/>
<rect x="723" y="16" width="12" height="12" fill="white" fill-opacity="0.25"/>
<rect x="739" y="16" width="12" height="12" fill="white" fill-opacity="0.25"/>
<rect x="755" y="16" width="12" height="12" fill="#3DADFF"/>
<rect x="771" y="16" width="12" height="12" fill="#3DADFF"/>
<rect x="787" y="16" width="12" height="12" fill="white" fill-opacity="0.25"/>
<rect x="803" y="16" width="12" height="12" fill="#3DADFF"/>
<rect x="819" y="16" width="12" height="12" fill="#3DADFF"/>
<rect x="835" y="16" width="12" height="12" fill="white" fill-opacity="0.25"/>
<rect x="851" y="16" width="12" height="12" fill="#3DADFF"/>
<rect x="867" y="16" width="12" height="12" fill="#3DADFF"/>
<rect x="883" y="16" width="12" height="12" fill="#3DADFF"/>
<rect x="899" y="16" width="12" height="12" fill="#3DADFF"/>
<rect x="915" y="16" width="12" height="12" fill="#3DADFF"/>
</g>
<g opacity="0.1">
<rect x="932" y="16" width="12" height="12" fill="white" fill-opacity="0.1"/>
<rect x="948" y="16" width="12" height="12" fill="#3DADFF"/>
<rect x="964" y="16" width="12" height="12" fill="#3DADFF"/>
<rect x="980" y="16" width="12" height="12" fill="white" fill-opacity="0.1"/>
<rect x="996" y="16" width="12" height="12" fill="#3DADFF"/>
<rect x="1012" y="16" width="12" height="12" fill="#3DADFF"/>
<rect x="1028" y="16" width="12" height="12" fill="#3DADFF"/>
<rect x="1044" y="16" width="12" height="12" fill="#3DADFF"/>
<rect x="1060" y="16" width="12" height="12" fill="white" fill-opacity="0.1"/>
<rect x="1076" y="16" width="12" height="12" fill="#3DADFF"/>
<rect x="1092" y="16" width="12" height="12" fill="#3DADFF"/>
<rect x="1108" y="16" width="12" height="12" fill="#3DADFF"/>
<rect x="1124" y="16" width="12" height="12" fill="white" fill-opacity="0.1"/>
<rect x="1140" y="16" width="12" height="12" fill="#3DADFF"/>
<rect x="1156" y="16" width="12" height="12" fill="white" fill-opacity="0.25"/>
<rect x="1172" y="16" width="12" height="12" fill="#3DADFF"/>
<rect x="1188" y="16" width="12" height="12" fill="white" fill-opacity="0.25"/>
<rect x="1204" y="16" width="12" height="12" fill="white" fill-opacity="0.25"/>
<rect x="1220" y="16" width="12" height="12" fill="#3DADFF"/>
<rect x="1236" y="16" width="12" height="12" fill="#3DADFF"/>
<rect x="1252" y="16" width="12" height="12" fill="white" fill-opacity="0.25"/>
<rect x="1268" y="16" width="12" height="12" fill="#3DADFF"/>
<rect x="1284" y="16" width="12" height="12" fill="#3DADFF"/>
<rect x="1300" y="16" width="12" height="12" fill="white" fill-opacity="0.25"/>
<rect x="1316" y="16" width="12" height="12" fill="#3DADFF"/>
<rect x="1332" y="16" width="12" height="12" fill="#3DADFF"/>
</g>
<g opacity="0.1">
<rect x="2" y="80" width="12" height="12" fill="#3DADFF"/>
<rect x="18" y="80" width="12" height="12" fill="#3DADFF"/>
<rect x="34" y="80" width="12" height="12" fill="white" fill-opacity="0.1"/>
<rect x="50" y="80" width="12" height="12" fill="#3DADFF"/>
<rect x="66" y="80" width="12" height="12" fill="white" fill-opacity="0.1"/>
<rect x="82" y="80" width="12" height="12" fill="#3DADFF"/>
<rect x="98" y="80" width="12" height="12" fill="#3DADFF"/>
<rect x="114" y="80" width="12" height="12" fill="#3DADFF"/>
<rect x="130" y="80" width="12" height="12" fill="white" fill-opacity="0.1"/>
<rect x="146" y="80" width="12" height="12" fill="#3DADFF"/>
<rect x="162" y="80" width="12" height="12" fill="white" fill-opacity="0.1"/>
<rect x="178" y="80" width="12" height="12" fill="#3DADFF"/>
<rect x="194" y="80" width="12" height="12" fill="white" fill-opacity="0.25"/>
<rect x="210" y="80" width="12" height="12" fill="#3DADFF"/>
<rect x="226" y="80" width="12" height="12" fill="#3DADFF"/>
<rect x="242" y="80" width="12" height="12" fill="white" fill-opacity="0.25"/>
<rect x="258" y="80" width="12" height="12" fill="#3DADFF"/>
<rect x="274" y="80" width="12" height="12" fill="#3DADFF"/>
<rect x="290" y="80" width="12" height="12" fill="white" fill-opacity="0.25"/>
<rect x="306" y="80" width="12" height="12" fill="white" fill-opacity="0.25"/>
<rect x="322" y="80" width="12" height="12" fill="#3DADFF"/>
<rect x="338" y="80" width="12" height="12" fill="#3DADFF"/>
<rect x="354" y="80" width="12" height="12" fill="white" fill-opacity="0.25"/>
<rect x="370" y="80" width="12" height="12" fill="#3DADFF"/>
<rect x="386" y="80" width="12" height="12" fill="#3DADFF"/>
<rect x="402" y="80" width="12" height="12" fill="white" fill-opacity="0.25"/>
<rect x="418" y="80" width="12" height="12" fill="#3DADFF"/>
<rect x="434" y="80" width="12" height="12" fill="#3DADFF"/>
<rect x="450" y="80" width="12" height="12" fill="white" fill-opacity="0.25"/>
</g>
<g opacity="0.1">
<rect x="467" y="80" width="12" height="12" fill="#3DADFF"/>
<rect x="483" y="80" width="12" height="12" fill="#3DADFF"/>
<rect x="499" y="80" width="12" height="12" fill="white" fill-opacity="0.1"/>
<rect x="515" y="80" width="12" height="12" fill="#3DADFF"/>
<rect x="531" y="80" width="12" height="12" fill="white" fill-opacity="0.1"/>
<rect x="547" y="80" width="12" height="12" fill="#3DADFF"/>
<rect x="563" y="80" width="12" height="12" fill="#3DADFF"/>
<rect x="579" y="80" width="12" height="12" fill="#3DADFF"/>
<rect x="595" y="80" width="12" height="12" fill="white" fill-opacity="0.1"/>
<rect x="611" y="80" width="12" height="12" fill="#3DADFF"/>
<rect x="627" y="80" width="12" height="12" fill="white" fill-opacity="0.1"/>
<rect x="643" y="80" width="12" height="12" fill="#3DADFF"/>
<rect x="659" y="80" width="12" height="12" fill="white" fill-opacity="0.25"/>
<rect x="675" y="80" width="12" height="12" fill="#3DADFF"/>
<rect x="691" y="80" width="12" height="12" fill="#3DADFF"/>
<rect x="707" y="80" width="12" height="12" fill="white" fill-opacity="0.25"/>
<rect x="723" y="80" width="12" height="12" fill="#3DADFF"/>
<rect x="739" y="80" width="12" height="12" fill="#3DADFF"/>
<rect x="755" y="80" width="12" height="12" fill="white" fill-opacity="0.25"/>
<rect x="771" y="80" width="12" height="12" fill="white" fill-opacity="0.25"/>
<rect x="787" y="80" width="12" height="12" fill="#3DADFF"/>
<rect x="803" y="80" width="12" height="12" fill="#3DADFF"/>
<rect x="819" y="80" width="12" height="12" fill="white" fill-opacity="0.25"/>
<rect x="835" y="80" width="12" height="12" fill="#3DADFF"/>
<rect x="851" y="80" width="12" height="12" fill="#3DADFF"/>
<rect x="867" y="80" width="12" height="12" fill="white" fill-opacity="0.25"/>
<rect x="883" y="80" width="12" height="12" fill="#3DADFF"/>
<rect x="899" y="80" width="12" height="12" fill="#3DADFF"/>
<rect x="915" y="80" width="12" height="12" fill="white" fill-opacity="0.25"/>
</g>
<g opacity="0.1">
<rect x="932" y="80" width="12" height="12" fill="#3DADFF"/>
<rect x="948" y="80" width="12" height="12" fill="#3DADFF"/>
<rect x="964" y="80" width="12" height="12" fill="white" fill-opacity="0.1"/>
<rect x="980" y="80" width="12" height="12" fill="#3DADFF"/>
<rect x="996" y="80" width="12" height="12" fill="white" fill-opacity="0.1"/>
<rect x="1012" y="80" width="12" height="12" fill="#3DADFF"/>
<rect x="1028" y="80" width="12" height="12" fill="#3DADFF"/>
<rect x="1044" y="80" width="12" height="12" fill="#3DADFF"/>
<rect x="1060" y="80" width="12" height="12" fill="white" fill-opacity="0.1"/>
<rect x="1076" y="80" width="12" height="12" fill="#3DADFF"/>
<rect x="1092" y="80" width="12" height="12" fill="white" fill-opacity="0.1"/>
<rect x="1108" y="80" width="12" height="12" fill="#3DADFF"/>
<rect x="1124" y="80" width="12" height="12" fill="white" fill-opacity="0.25"/>
<rect x="1140" y="80" width="12" height="12" fill="#3DADFF"/>
<rect x="1156" y="80" width="12" height="12" fill="#3DADFF"/>
<rect x="1172" y="80" width="12" height="12" fill="white" fill-opacity="0.25"/>
<rect x="1188" y="80" width="12" height="12" fill="#3DADFF"/>
<rect x="1204" y="80" width="12" height="12" fill="#3DADFF"/>
<rect x="1220" y="80" width="12" height="12" fill="white" fill-opacity="0.25"/>
<rect x="1236" y="80" width="12" height="12" fill="white" fill-opacity="0.25"/>
<rect x="1252" y="80" width="12" height="12" fill="#3DADFF"/>
<rect x="1268" y="80" width="12" height="12" fill="#3DADFF"/>
<rect x="1284" y="80" width="12" height="12" fill="white" fill-opacity="0.25"/>
<rect x="1300" y="80" width="12" height="12" fill="#3DADFF"/>
<rect x="1316" y="80" width="12" height="12" fill="#3DADFF"/>
<rect x="1332" y="80" width="12" height="12" fill="white" fill-opacity="0.25"/>
</g>
<g opacity="0.1">
<rect x="2" y="48" width="12" height="12" fill="#3DADFF"/>
<rect x="18" y="48" width="12" height="12" fill="white" fill-opacity="0.1"/>
<rect x="34" y="48" width="12" height="12" fill="#3DADFF"/>
<rect x="50" y="48" width="12" height="12" fill="#3DADFF"/>
<rect x="66" y="48" width="12" height="12" fill="#3DADFF"/>
<rect x="82" y="48" width="12" height="12" fill="white" fill-opacity="0.1"/>
<rect x="98" y="48" width="12" height="12" fill="#3DADFF"/>
<rect x="114" y="48" width="12" height="12" fill="#3DADFF"/>
<rect x="130" y="48" width="12" height="12" fill="white" fill-opacity="0.1"/>
<rect x="146" y="48" width="12" height="12" fill="#3DADFF"/>
<rect x="162" y="48" width="12" height="12" fill="#3DADFF"/>
<rect x="178" y="48" width="12" height="12" fill="#3DADFF"/>
<rect x="194" y="48" width="12" height="12" fill="#3DADFF"/>
<rect x="210" y="48" width="12" height="12" fill="white" fill-opacity="0.25"/>
<rect x="226" y="48" width="12" height="12" fill="#3DADFF"/>
<rect x="242" y="48" width="12" height="12" fill="#3DADFF"/>
<rect x="258" y="48" width="12" height="12" fill="#3DADFF"/>
<rect x="274" y="48" width="12" height="12" fill="#3DADFF"/>
<rect x="290" y="48" width="12" height="12" fill="white" fill-opacity="0.25"/>
<rect x="306" y="48" width="12" height="12" fill="#3DADFF"/>
<rect x="322" y="48" width="12" height="12" fill="white" fill-opacity="0.25"/>
<rect x="338" y="48" width="12" height="12" fill="#3DADFF"/>
<rect x="354" y="48" width="12" height="12" fill="#3DADFF"/>
<rect x="370" y="48" width="12" height="12" fill="#3DADFF"/>
<rect x="386" y="48" width="12" height="12" fill="white" fill-opacity="0.25"/>
<rect x="402" y="48" width="12" height="12" fill="white" fill-opacity="0.25"/>
<rect x="418" y="48" width="12" height="12" fill="#3DADFF"/>
<rect x="434" y="48" width="12" height="12" fill="#3DADFF"/>
<rect x="450" y="48" width="12" height="12" fill="#3DADFF"/>
</g>
<g opacity="0.1">
<rect x="467" y="48" width="12" height="12" fill="#3DADFF"/>
<rect x="483" y="48" width="12" height="12" fill="white" fill-opacity="0.1"/>
<rect x="499" y="48" width="12" height="12" fill="#3DADFF"/>
<rect x="515" y="48" width="12" height="12" fill="#3DADFF"/>
<rect x="531" y="48" width="12" height="12" fill="#3DADFF"/>
<rect x="547" y="48" width="12" height="12" fill="white" fill-opacity="0.1"/>
<rect x="563" y="48" width="12" height="12" fill="#3DADFF"/>
<rect x="579" y="48" width="12" height="12" fill="#3DADFF"/>
<rect x="595" y="48" width="12" height="12" fill="white" fill-opacity="0.1"/>
<rect x="611" y="48" width="12" height="12" fill="#3DADFF"/>
<rect x="627" y="48" width="12" height="12" fill="#3DADFF"/>
<rect x="643" y="48" width="12" height="12" fill="#3DADFF"/>
<rect x="659" y="48" width="12" height="12" fill="#3DADFF"/>
<rect x="675" y="48" width="12" height="12" fill="white" fill-opacity="0.25"/>
<rect x="691" y="48" width="12" height="12" fill="#3DADFF"/>
<rect x="707" y="48" width="12" height="12" fill="#3DADFF"/>
<rect x="723" y="48" width="12" height="12" fill="#3DADFF"/>
<rect x="739" y="48" width="12" height="12" fill="#3DADFF"/>
<rect x="755" y="48" width="12" height="12" fill="white" fill-opacity="0.25"/>
<rect x="771" y="48" width="12" height="12" fill="#3DADFF"/>
<rect x="787" y="48" width="12" height="12" fill="white" fill-opacity="0.25"/>
<rect x="803" y="48" width="12" height="12" fill="#3DADFF"/>
<rect x="819" y="48" width="12" height="12" fill="#3DADFF"/>
<rect x="835" y="48" width="12" height="12" fill="#3DADFF"/>
<rect x="851" y="48" width="12" height="12" fill="white" fill-opacity="0.25"/>
<rect x="867" y="48" width="12" height="12" fill="white" fill-opacity="0.25"/>
<rect x="883" y="48" width="12" height="12" fill="#3DADFF"/>
<rect x="899" y="48" width="12" height="12" fill="#3DADFF"/>
<rect x="915" y="48" width="12" height="12" fill="#3DADFF"/>
</g>
<g opacity="0.1">
<rect x="932" y="48" width="12" height="12" fill="#3DADFF"/>
<rect x="948" y="48" width="12" height="12" fill="white" fill-opacity="0.1"/>
<rect x="964" y="48" width="12" height="12" fill="#3DADFF"/>
<rect x="980" y="48" width="12" height="12" fill="#3DADFF"/>
<rect x="996" y="48" width="12" height="12" fill="#3DADFF"/>
<rect x="1012" y="48" width="12" height="12" fill="white" fill-opacity="0.1"/>
<rect x="1028" y="48" width="12" height="12" fill="#3DADFF"/>
<rect x="1044" y="48" width="12" height="12" fill="#3DADFF"/>
<rect x="1060" y="48" width="12" height="12" fill="white" fill-opacity="0.1"/>
<rect x="1076" y="48" width="12" height="12" fill="#3DADFF"/>
<rect x="1092" y="48" width="12" height="12" fill="#3DADFF"/>
<rect x="1108" y="48" width="12" height="12" fill="#3DADFF"/>
<rect x="1124" y="48" width="12" height="12" fill="#3DADFF"/>
<rect x="1140" y="48" width="12" height="12" fill="white" fill-opacity="0.25"/>
<rect x="1156" y="48" width="12" height="12" fill="#3DADFF"/>
<rect x="1172" y="48" width="12" height="12" fill="#3DADFF"/>
<rect x="1188" y="48" width="12" height="12" fill="#3DADFF"/>
<rect x="1204" y="48" width="12" height="12" fill="#3DADFF"/>
<rect x="1220" y="48" width="12" height="12" fill="white" fill-opacity="0.25"/>
<rect x="1236" y="48" width="12" height="12" fill="#3DADFF"/>
<rect x="1252" y="48" width="12" height="12" fill="white" fill-opacity="0.25"/>
<rect x="1268" y="48" width="12" height="12" fill="#3DADFF"/>
<rect x="1284" y="48" width="12" height="12" fill="#3DADFF"/>
<rect x="1300" y="48" width="12" height="12" fill="#3DADFF"/>
<rect x="1316" y="48" width="12" height="12" fill="white" fill-opacity="0.25"/>
<rect x="1332" y="48" width="12" height="12" fill="white" fill-opacity="0.25"/>
</g>
<g opacity="0.1">
<rect x="2" y="112" width="12" height="12" fill="white" fill-opacity="0.1"/>
<rect x="18" y="112" width="12" height="12" fill="#3DADFF"/>
<rect x="34" y="112" width="12" height="12" fill="#3DADFF"/>
<rect x="50" y="112" width="12" height="12" fill="#3DADFF"/>
<rect x="66" y="112" width="12" height="12" fill="white" fill-opacity="0.1"/>
<rect x="82" y="112" width="12" height="12" fill="#3DADFF"/>
<rect x="98" y="112" width="12" height="12" fill="#3DADFF"/>
<rect x="114" y="112" width="12" height="12" fill="#3DADFF"/>
<rect x="130" y="112" width="12" height="12" fill="#3DADFF"/>
<rect x="146" y="112" width="12" height="12" fill="#3DADFF"/>
<rect x="162" y="112" width="12" height="12" fill="white" fill-opacity="0.1"/>
<rect x="178" y="112" width="12" height="12" fill="#3DADFF"/>
<rect x="194" y="112" width="12" height="12" fill="#3DADFF"/>
<rect x="210" y="112" width="12" height="12" fill="#3DADFF"/>
<rect x="226" y="112" width="12" height="12" fill="#3DADFF"/>
<rect x="242" y="112" width="12" height="12" fill="#3DADFF"/>
<rect x="258" y="112" width="12" height="12" fill="white" fill-opacity="0.25"/>
<rect x="274" y="112" width="12" height="12" fill="#3DADFF"/>
<rect x="290" y="112" width="12" height="12" fill="#3DADFF"/>
<rect x="306" y="112" width="12" height="12" fill="#3DADFF"/>
<rect x="322" y="112" width="12" height="12" fill="#3DADFF"/>
<rect x="338" y="112" width="12" height="12" fill="white" fill-opacity="0.25"/>
<rect x="354" y="112" width="12" height="12" fill="#3DADFF"/>
<rect x="370" y="112" width="12" height="12" fill="#3DADFF"/>
<rect x="386" y="112" width="12" height="12" fill="#3DADFF"/>
<rect x="402" y="112" width="12" height="12" fill="white" fill-opacity="0.25"/>
<rect x="418" y="112" width="12" height="12" fill="white" fill-opacity="0.25"/>
<rect x="434" y="112" width="12" height="12" fill="white" fill-opacity="0.25"/>
<rect x="450" y="112" width="12" height="12" fill="#3DADFF"/>
</g>
<g opacity="0.1">
<rect x="467" y="112" width="12" height="12" fill="white" fill-opacity="0.1"/>
<rect x="483" y="112" width="12" height="12" fill="#3DADFF"/>
<rect x="499" y="112" width="12" height="12" fill="#3DADFF"/>
<rect x="515" y="112" width="12" height="12" fill="#3DADFF"/>
<rect x="531" y="112" width="12" height="12" fill="white" fill-opacity="0.1"/>
<rect x="547" y="112" width="12" height="12" fill="#3DADFF"/>
<rect x="563" y="112" width="12" height="12" fill="#3DADFF"/>
<rect x="579" y="112" width="12" height="12" fill="#3DADFF"/>
<rect x="595" y="112" width="12" height="12" fill="#3DADFF"/>
<rect x="611" y="112" width="12" height="12" fill="#3DADFF"/>
<rect x="627" y="112" width="12" height="12" fill="white" fill-opacity="0.1"/>
<rect x="643" y="112" width="12" height="12" fill="#3DADFF"/>
<rect x="659" y="112" width="12" height="12" fill="#3DADFF"/>
<rect x="675" y="112" width="12" height="12" fill="#3DADFF"/>
<rect x="691" y="112" width="12" height="12" fill="#3DADFF"/>
<rect x="707" y="112" width="12" height="12" fill="#3DADFF"/>
<rect x="723" y="112" width="12" height="12" fill="white" fill-opacity="0.25"/>
<rect x="739" y="112" width="12" height="12" fill="#3DADFF"/>
<rect x="755" y="112" width="12" height="12" fill="#3DADFF"/>
<rect x="771" y="112" width="12" height="12" fill="#3DADFF"/>
<rect x="787" y="112" width="12" height="12" fill="#3DADFF"/>
<rect x="803" y="112" width="12" height="12" fill="white" fill-opacity="0.25"/>
<rect x="819" y="112" width="12" height="12" fill="#3DADFF"/>
<rect x="835" y="112" width="12" height="12" fill="#3DADFF"/>
<rect x="851" y="112" width="12" height="12" fill="#3DADFF"/>
<rect x="867" y="112" width="12" height="12" fill="white" fill-opacity="0.25"/>
<rect x="883" y="112" width="12" height="12" fill="white" fill-opacity="0.25"/>
<rect x="899" y="112" width="12" height="12" fill="white" fill-opacity="0.25"/>
<rect x="915" y="112" width="12" height="12" fill="#3DADFF"/>
</g>
<g opacity="0.1">
<rect x="932" y="112" width="12" height="12" fill="white" fill-opacity="0.1"/>
<rect x="948" y="112" width="12" height="12" fill="#3DADFF"/>
<rect x="964" y="112" width="12" height="12" fill="#3DADFF"/>
<rect x="980" y="112" width="12" height="12" fill="#3DADFF"/>
<rect x="996" y="112" width="12" height="12" fill="white" fill-opacity="0.1"/>
<rect x="1012" y="112" width="12" height="12" fill="#3DADFF"/>
<rect x="1028" y="112" width="12" height="12" fill="#3DADFF"/>
<rect x="1044" y="112" width="12" height="12" fill="#3DADFF"/>
<rect x="1060" y="112" width="12" height="12" fill="#3DADFF"/>
<rect x="1076" y="112" width="12" height="12" fill="#3DADFF"/>
<rect x="1092" y="112" width="12" height="12" fill="white" fill-opacity="0.1"/>
<rect x="1108" y="112" width="12" height="12" fill="#3DADFF"/>
<rect x="1124" y="112" width="12" height="12" fill="#3DADFF"/>
<rect x="1140" y="112" width="12" height="12" fill="#3DADFF"/>
<rect x="1156" y="112" width="12" height="12" fill="#3DADFF"/>
<rect x="1172" y="112" width="12" height="12" fill="#3DADFF"/>
<rect x="1188" y="112" width="12" height="12" fill="white" fill-opacity="0.25"/>
<rect x="1204" y="112" width="12" height="12" fill="#3DADFF"/>
<rect x="1220" y="112" width="12" height="12" fill="#3DADFF"/>
<rect x="1236" y="112" width="12" height="12" fill="#3DADFF"/>
<rect x="1252" y="112" width="12" height="12" fill="#3DADFF"/>
<rect x="1268" y="112" width="12" height="12" fill="white" fill-opacity="0.25"/>
<rect x="1284" y="112" width="12" height="12" fill="#3DADFF"/>
<rect x="1300" y="112" width="12" height="12" fill="#3DADFF"/>
<rect x="1316" y="112" width="12" height="12" fill="#3DADFF"/>
<rect x="1332" y="112" width="12" height="12" fill="white" fill-opacity="0.25"/>
</g>
</g>
<defs>
<clipPath id="clip0_93_9918">
<rect width="1346" height="124" fill="white"/>
</clipPath>
</defs>
</svg>
