<svg width="1339" height="2" viewBox="0 0 1339 2" fill="none" xmlns="http://www.w3.org/2000/svg">
<path d="M5.28409 0.346591V1.81818H0.125V0.346591H5.28409ZM12.6903 0.346591V1.81818H7.53125V0.346591H12.6903ZM20.0966 0.346591V1.81818H14.9375V0.346591H20.0966ZM27.5028 0.346591V1.81818H22.3438V0.346591H27.5028ZM34.9091 0.346591V1.81818H29.75V0.346591H34.9091ZM42.3153 0.346591V1.81818H37.1562V0.346591H42.3153ZM49.7216 0.346591V1.81818H44.5625V0.346591H49.7216ZM57.1278 0.346591V1.81818H51.9688V0.346591H57.1278ZM64.5341 0.346591V1.81818H59.375V0.346591H64.5341ZM71.9403 0.346591V1.81818H66.7812V0.346591H71.9403ZM79.3466 0.346591V1.81818H74.1875V0.346591H79.3466ZM86.7528 0.346591V1.81818H81.5938V0.346591H86.7528ZM94.1591 0.346591V1.81818H89V0.346591H94.1591ZM101.565 0.346591V1.81818H96.4062V0.346591H101.565ZM108.972 0.346591V1.81818H103.812V0.346591H108.972ZM116.378 0.346591V1.81818H111.219V0.346591H116.378ZM123.784 0.346591V1.81818H118.625V0.346591H123.784ZM131.19 0.346591V1.81818H126.031V0.346591H131.19ZM138.597 0.346591V1.81818H133.438V0.346591H138.597ZM146.003 0.346591V1.81818H140.844V0.346591H146.003ZM153.409 0.346591V1.81818H148.25V0.346591H153.409ZM160.815 0.346591V1.81818H155.656V0.346591H160.815ZM168.222 0.346591V1.81818H163.062V0.346591H168.222ZM175.628 0.346591V1.81818H170.469V0.346591H175.628ZM183.034 0.346591V1.81818H177.875V0.346591H183.034ZM190.44 0.346591V1.81818H185.281V0.346591H190.44ZM197.847 0.346591V1.81818H192.688V0.346591H197.847ZM205.253 0.346591V1.81818H200.094V0.346591H205.253ZM212.659 0.346591V1.81818H207.5V0.346591H212.659ZM220.065 0.346591V1.81818H214.906V0.346591H220.065ZM227.472 0.346591V1.81818H222.312V0.346591H227.472ZM234.878 0.346591V1.81818H229.719V0.346591H234.878ZM242.284 0.346591V1.81818H237.125V0.346591H242.284ZM249.69 0.346591V1.81818H244.531V0.346591H249.69ZM257.097 0.346591V1.81818H251.938V0.346591H257.097ZM264.503 0.346591V1.81818H259.344V0.346591H264.503ZM271.909 0.346591V1.81818H266.75V0.346591H271.909ZM279.315 0.346591V1.81818H274.156V0.346591H279.315ZM286.722 0.346591V1.81818H281.562V0.346591H286.722ZM294.128 0.346591V1.81818H288.969V0.346591H294.128ZM301.534 0.346591V1.81818H296.375V0.346591H301.534ZM308.94 0.346591V1.81818H303.781V0.346591H308.94ZM316.347 0.346591V1.81818H311.188V0.346591H316.347ZM323.753 0.346591V1.81818H318.594V0.346591H323.753ZM331.159 0.346591V1.81818H326V0.346591H331.159ZM338.565 0.346591V1.81818H333.406V0.346591H338.565ZM345.972 0.346591V1.81818H340.812V0.346591H345.972ZM353.378 0.346591V1.81818H348.219V0.346591H353.378ZM360.784 0.346591V1.81818H355.625V0.346591H360.784ZM368.19 0.346591V1.81818H363.031V0.346591H368.19ZM375.597 0.346591V1.81818H370.438V0.346591H375.597ZM383.003 0.346591V1.81818H377.844V0.346591H383.003ZM390.409 0.346591V1.81818H385.25V0.346591H390.409ZM397.815 0.346591V1.81818H392.656V0.346591H397.815ZM405.222 0.346591V1.81818H400.062V0.346591H405.222ZM412.628 0.346591V1.81818H407.469V0.346591H412.628ZM420.034 0.346591V1.81818H414.875V0.346591H420.034ZM427.44 0.346591V1.81818H422.281V0.346591H427.44ZM434.847 0.346591V1.81818H429.688V0.346591H434.847ZM442.253 0.346591V1.81818H437.094V0.346591H442.253ZM449.659 0.346591V1.81818H444.5V0.346591H449.659ZM457.065 0.346591V1.81818H451.906V0.346591H457.065ZM464.472 0.346591V1.81818H459.312V0.346591H464.472ZM471.878 0.346591V1.81818H466.719V0.346591H471.878ZM479.284 0.346591V1.81818H474.125V0.346591H479.284ZM486.69 0.346591V1.81818H481.531V0.346591H486.69ZM494.097 0.346591V1.81818H488.938V0.346591H494.097ZM501.503 0.346591V1.81818H496.344V0.346591H501.503ZM508.909 0.346591V1.81818H503.75V0.346591H508.909ZM516.315 0.346591V1.81818H511.156V0.346591H516.315ZM523.722 0.346591V1.81818H518.562V0.346591H523.722ZM531.128 0.346591V1.81818H525.969V0.346591H531.128ZM538.534 0.346591V1.81818H533.375V0.346591H538.534ZM545.94 0.346591V1.81818H540.781V0.346591H545.94ZM553.347 0.346591V1.81818H548.188V0.346591H553.347ZM560.753 0.346591V1.81818H555.594V0.346591H560.753ZM568.159 0.346591V1.81818H563V0.346591H568.159ZM575.565 0.346591V1.81818H570.406V0.346591H575.565ZM582.972 0.346591V1.81818H577.812V0.346591H582.972ZM590.378 0.346591V1.81818H585.219V0.346591H590.378ZM597.784 0.346591V1.81818H592.625V0.346591H597.784ZM605.19 0.346591V1.81818H600.031V0.346591H605.19ZM612.597 0.346591V1.81818H607.438V0.346591H612.597ZM620.003 0.346591V1.81818H614.844V0.346591H620.003ZM627.409 0.346591V1.81818H622.25V0.346591H627.409ZM634.815 0.346591V1.81818H629.656V0.346591H634.815ZM642.222 0.346591V1.81818H637.062V0.346591H642.222ZM649.628 0.346591V1.81818H644.469V0.346591H649.628ZM657.034 0.346591V1.81818H651.875V0.346591H657.034ZM664.44 0.346591V1.81818H659.281V0.346591H664.44ZM671.847 0.346591V1.81818H666.688V0.346591H671.847ZM679.253 0.346591V1.81818H674.094V0.346591H679.253ZM686.659 0.346591V1.81818H681.5V0.346591H686.659ZM694.065 0.346591V1.81818H688.906V0.346591H694.065ZM701.472 0.346591V1.81818H696.312V0.346591H701.472ZM708.878 0.346591V1.81818H703.719V0.346591H708.878ZM716.284 0.346591V1.81818H711.125V0.346591H716.284ZM723.69 0.346591V1.81818H718.531V0.346591H723.69ZM731.097 0.346591V1.81818H725.938V0.346591H731.097ZM738.503 0.346591V1.81818H733.344V0.346591H738.503ZM745.909 0.346591V1.81818H740.75V0.346591H745.909ZM753.315 0.346591V1.81818H748.156V0.346591H753.315ZM760.722 0.346591V1.81818H755.562V0.346591H760.722ZM768.128 0.346591V1.81818H762.969V0.346591H768.128ZM775.534 0.346591V1.81818H770.375V0.346591H775.534ZM782.94 0.346591V1.81818H777.781V0.346591H782.94ZM790.347 0.346591V1.81818H785.188V0.346591H790.347ZM797.753 0.346591V1.81818H792.594V0.346591H797.753ZM805.159 0.346591V1.81818H800V0.346591H805.159ZM812.565 0.346591V1.81818H807.406V0.346591H812.565ZM819.972 0.346591V1.81818H814.812V0.346591H819.972ZM827.378 0.346591V1.81818H822.219V0.346591H827.378ZM834.784 0.346591V1.81818H829.625V0.346591H834.784ZM842.19 0.346591V1.81818H837.031V0.346591H842.19ZM849.597 0.346591V1.81818H844.438V0.346591H849.597ZM857.003 0.346591V1.81818H851.844V0.346591H857.003ZM864.409 0.346591V1.81818H859.25V0.346591H864.409ZM871.815 0.346591V1.81818H866.656V0.346591H871.815ZM879.222 0.346591V1.81818H874.062V0.346591H879.222ZM886.628 0.346591V1.81818H881.469V0.346591H886.628ZM894.034 0.346591V1.81818H888.875V0.346591H894.034ZM901.44 0.346591V1.81818H896.281V0.346591H901.44ZM908.847 0.346591V1.81818H903.688V0.346591H908.847ZM916.253 0.346591V1.81818H911.094V0.346591H916.253ZM923.659 0.346591V1.81818H918.5V0.346591H923.659ZM931.065 0.346591V1.81818H925.906V0.346591H931.065ZM938.472 0.346591V1.81818H933.312V0.346591H938.472ZM945.878 0.346591V1.81818H940.719V0.346591H945.878ZM953.284 0.346591V1.81818H948.125V0.346591H953.284ZM960.69 0.346591V1.81818H955.531V0.346591H960.69ZM968.097 0.346591V1.81818H962.938V0.346591H968.097ZM975.503 0.346591V1.81818H970.344V0.346591H975.503ZM982.909 0.346591V1.81818H977.75V0.346591H982.909ZM990.315 0.346591V1.81818H985.156V0.346591H990.315ZM997.722 0.346591V1.81818H992.562V0.346591H997.722ZM1005.13 0.346591V1.81818H999.969V0.346591H1005.13ZM1012.53 0.346591V1.81818H1007.38V0.346591H1012.53ZM1019.94 0.346591V1.81818H1014.78V0.346591H1019.94ZM1027.35 0.346591V1.81818H1022.19V0.346591H1027.35ZM1034.75 0.346591V1.81818H1029.59V0.346591H1034.75ZM1042.16 0.346591V1.81818H1037V0.346591H1042.16ZM1049.57 0.346591V1.81818H1044.41V0.346591H1049.57ZM1056.97 0.346591V1.81818H1051.81V0.346591H1056.97ZM1064.38 0.346591V1.81818H1059.22V0.346591H1064.38ZM1071.78 0.346591V1.81818H1066.62V0.346591H1071.78ZM1079.19 0.346591V1.81818H1074.03V0.346591H1079.19ZM1086.6 0.346591V1.81818H1081.44V0.346591H1086.6ZM1094 0.346591V1.81818H1088.84V0.346591H1094ZM1101.41 0.346591V1.81818H1096.25V0.346591H1101.41ZM1108.82 0.346591V1.81818H1103.66V0.346591H1108.82ZM1116.22 0.346591V1.81818H1111.06V0.346591H1116.22ZM1123.63 0.346591V1.81818H1118.47V0.346591H1123.63ZM1131.03 0.346591V1.81818H1125.88V0.346591H1131.03ZM1138.44 0.346591V1.81818H1133.28V0.346591H1138.44ZM1145.85 0.346591V1.81818H1140.69V0.346591H1145.85ZM1153.25 0.346591V1.81818H1148.09V0.346591H1153.25ZM1160.66 0.346591V1.81818H1155.5V0.346591H1160.66ZM1168.07 0.346591V1.81818H1162.91V0.346591H1168.07ZM1175.47 0.346591V1.81818H1170.31V0.346591H1175.47ZM1182.88 0.346591V1.81818H1177.72V0.346591H1182.88ZM1190.28 0.346591V1.81818H1185.12V0.346591H1190.28ZM1197.69 0.346591V1.81818H1192.53V0.346591H1197.69ZM1205.1 0.346591V1.81818H1199.94V0.346591H1205.1ZM1212.5 0.346591V1.81818H1207.34V0.346591H1212.5ZM1219.91 0.346591V1.81818H1214.75V0.346591H1219.91ZM1227.32 0.346591V1.81818H1222.16V0.346591H1227.32ZM1234.72 0.346591V1.81818H1229.56V0.346591H1234.72ZM1242.13 0.346591V1.81818H1236.97V0.346591H1242.13ZM1249.53 0.346591V1.81818H1244.38V0.346591H1249.53ZM1256.94 0.346591V1.81818H1251.78V0.346591H1256.94ZM1264.35 0.346591V1.81818H1259.19V0.346591H1264.35ZM1271.75 0.346591V1.81818H1266.59V0.346591H1271.75ZM1279.16 0.346591V1.81818H1274V0.346591H1279.16ZM1286.57 0.346591V1.81818H1281.41V0.346591H1286.57ZM1293.97 0.346591V1.81818H1288.81V0.346591H1293.97ZM1301.38 0.346591V1.81818H1296.22V0.346591H1301.38ZM1308.78 0.346591V1.81818H1303.62V0.346591H1308.78ZM1316.19 0.346591V1.81818H1311.03V0.346591H1316.19ZM1323.6 0.346591V1.81818H1318.44V0.346591H1323.6ZM1331 0.346591V1.81818H1325.84V0.346591H1331ZM1338.41 0.346591V1.81818H1333.25V0.346591H1338.41Z" fill="#0F91D5" fill-opacity="0.16"/>
</svg>
